<svg width="44" height="44" viewBox="0 0 44 44" fill="none" xmlns="http://www.w3.org/2000/svg">
<path d="M38.5 12.8346V31.168C38.5 36.668 35.75 40.3346 29.3333 40.3346H14.6667C8.25 40.3346 5.5 36.668 5.5 31.168V12.8346C5.5 7.33464 8.25 3.66797 14.6667 3.66797H29.3333C35.75 3.66797 38.5 7.33464 38.5 12.8346Z" stroke="#234D70" stroke-width="2.75" stroke-miterlimit="10" stroke-linecap="round" stroke-linejoin="round"/>
<path d="M28.4193 3.66797V18.0779C28.4193 18.8846 27.4659 19.2879 26.8792 18.7563L22.626 14.833C22.2777 14.503 21.7276 14.503 21.3792 14.833L17.126 18.7563C16.5393 19.2879 15.5859 18.8846 15.5859 18.0779V3.66797H28.4193Z" stroke="#234D70" stroke-width="2.75" stroke-miterlimit="10" stroke-linecap="round" stroke-linejoin="round"/>
<path d="M24.2891 25.668H32.0807" stroke="#234D70" stroke-width="2.75" stroke-miterlimit="10" stroke-linecap="round" stroke-linejoin="round"/>
<path d="M16.5 33H32.0833" stroke="#234D70" stroke-width="2.75" stroke-miterlimit="10" stroke-linecap="round" stroke-linejoin="round"/>
</svg>
