<svg width="20" height="20" viewBox="0 0 20 20" fill="none" xmlns="http://www.w3.org/2000/svg">
<path d="M18.5602 7.16089C18.808 6.92041 18.8141 6.5249 18.5736 6.2771L16.17 3.79968C16.1699 3.79953 16.1697 3.79945 16.1695 3.7993C16.0559 3.68173 15.898 3.60742 15.7214 3.60742C15.5448 3.60742 15.387 3.68173 15.2733 3.7993C15.2732 3.79945 15.273 3.79953 15.2728 3.79968L12.8686 6.2771C12.6282 6.5249 12.6343 6.92041 12.8821 7.16089C13.1299 7.40137 13.5254 7.39526 13.7659 7.14746L15.0964 5.77619L15.0964 15.7656C15.0964 16.1111 15.376 16.3906 15.7214 16.3906C16.0669 16.3906 16.3464 16.1111 16.3464 15.7656L16.3464 5.77638L17.6764 7.14746C17.9169 7.39526 18.3124 7.40137 18.5602 7.16089Z" fill="#4D5761"/>
<path d="M3.20007 11.9238C3.20007 12.2693 3.47961 12.5488 3.82507 12.5488L10.6073 12.5488C10.9528 12.5488 11.2323 12.2693 11.2323 11.9238C11.2323 11.5784 10.9528 11.2988 10.6073 11.2988L3.82507 11.2988C3.47961 11.2988 3.20007 11.5784 3.20007 11.9238Z" fill="#4D5761"/>
<path d="M5.15015 8.07812C5.15015 8.42358 5.42969 8.70312 5.77515 8.70312L10.6073 8.70312C10.9528 8.70312 11.2323 8.42358 11.2323 8.07812C11.2323 7.73267 10.9528 7.45312 10.6073 7.45312L5.77515 7.45312C5.42969 7.45312 5.15015 7.73267 5.15015 8.07812Z" fill="#4D5761"/>
<path d="M10.6073 4.85742C10.9528 4.85742 11.2323 4.57788 11.2323 4.23242C11.2323 3.88696 10.9528 3.60742 10.6073 3.60742L7.72522 3.60742C7.37976 3.60742 7.10022 3.88696 7.10022 4.23242C7.10022 4.57788 7.37976 4.85742 7.72522 4.85742L10.6073 4.85742Z" fill="#4D5761"/>
<path d="M1.875 16.3906L10.6073 16.3906C10.9528 16.3906 11.2323 16.1111 11.2323 15.7656C11.2323 15.4202 10.9528 15.1406 10.6073 15.1406L1.875 15.1406C1.52954 15.1406 1.25 15.4202 1.25 15.7656C1.25 16.1111 1.52954 16.3906 1.875 16.3906Z" fill="#4D5761"/>
</svg>
