<svg width="24" height="24" viewBox="0 0 24 24" fill="none" xmlns="http://www.w3.org/2000/svg">
<path d="M6.73506 21.9498C5.59765 21.9501 4.4857 21.613 3.53991 20.9812C2.59412 20.3494 1.857 19.4512 1.42182 18.4004C0.986634 17.3495 0.872947 16.1932 1.09514 15.0777C1.31734 13.9622 1.86543 12.9377 2.67006 12.1338L11.1551 3.64775C11.2958 3.50706 11.4866 3.42801 11.6856 3.42801C11.8845 3.42801 12.0754 3.50706 12.2161 3.64775C12.3568 3.78845 12.4358 3.97928 12.4358 4.17825C12.4358 4.37723 12.3568 4.56806 12.2161 4.70875L3.73006 13.1938C3.31923 13.5847 2.9908 14.0539 2.76413 14.5738C2.53746 15.0937 2.41712 15.6536 2.41021 16.2207C2.40331 16.7878 2.50997 17.3505 2.72391 17.8758C2.93786 18.401 3.25476 18.8781 3.65594 19.2789C4.05713 19.6798 4.53449 19.9963 5.05989 20.2098C5.5853 20.4233 6.14812 20.5295 6.7152 20.5221C7.28228 20.5147 7.84215 20.3939 8.36181 20.1668C8.88148 19.9397 9.35044 19.6109 9.74107 19.1998L20.7011 8.23975C21.2033 7.72112 21.4815 7.02584 21.4757 6.3039C21.4699 5.58196 21.1806 4.89124 20.6701 4.38074C20.1596 3.87023 19.4689 3.58087 18.7469 3.57507C18.025 3.56928 17.3297 3.84751 16.8111 4.34975L7.97306 13.1938C7.73861 13.4282 7.6069 13.7462 7.6069 14.0778C7.6069 14.4093 7.73861 14.7273 7.97306 14.9618C8.20752 15.1962 8.5255 15.3279 8.85706 15.3279C9.18863 15.3279 9.50661 15.1962 9.74107 14.9618L15.3961 9.30575C15.4652 9.23409 15.5479 9.17691 15.6394 9.13756C15.7309 9.09822 15.8293 9.07748 15.9289 9.07657C16.0285 9.07566 16.1273 9.09459 16.2194 9.13225C16.3116 9.16992 16.3954 9.22557 16.4659 9.29596C16.5363 9.36634 16.592 9.45005 16.6298 9.54221C16.6675 9.63436 16.6866 9.73311 16.6857 9.8327C16.6849 9.93228 16.6643 10.0307 16.625 10.1222C16.5858 10.2137 16.5287 10.2965 16.4571 10.3658L10.8011 16.0228C10.2854 16.5386 9.58584 16.8285 8.85642 16.8285C8.127 16.8286 7.42741 16.539 6.91156 16.0233C6.39572 15.5075 6.10587 14.808 6.10577 14.0786C6.10568 13.3492 6.39535 12.6496 6.91106 12.1338L15.7511 3.29975C16.548 2.50264 17.629 2.05478 18.7562 2.05469C19.8834 2.05459 20.9645 2.50228 21.7616 3.29925C22.5587 4.09623 23.0065 5.17721 23.0066 6.3044C23.0067 7.43159 22.559 8.51265 21.7621 9.30975L10.8021 20.2658C10.2691 20.8014 9.63529 21.226 8.9372 21.515C8.23911 21.8041 7.49063 21.9518 6.73506 21.9498Z" fill="#5089AC"/>
</svg>
