<svg width="24" height="24" viewBox="0 0 24 24" fill="none" xmlns="http://www.w3.org/2000/svg">
<path d="M19.9688 10.0312H18.7446L17.0269 7.52217C16.0126 6.04069 14.3353 5.15625 12.54 5.15625H8.92336C7.128 5.15625 5.45062 6.04069 4.43644 7.52217L2.67183 10.0998C1.09013 10.6222 0 12.117 0 13.7948V15C0 15.7754 0.630844 16.4062 1.40625 16.4062H2.35598C2.35477 16.4374 2.35359 16.4685 2.35359 16.5C2.35359 17.7923 3.405 18.8438 4.69734 18.8438C5.98969 18.8438 7.04109 17.7923 7.04109 16.5C7.04109 16.4685 7.03997 16.4374 7.0387 16.4062H16.9307C17.1895 16.4062 17.3994 16.1963 17.3994 15.9375C17.3994 15.6787 17.1895 15.4688 16.9307 15.4688H6.80137C6.4192 14.6921 5.6198 14.1562 4.69734 14.1562C3.77489 14.1562 2.97548 14.6921 2.59331 15.4688H1.40625C1.14778 15.4688 0.9375 15.2585 0.9375 15V13.7948C0.9375 12.4768 1.82372 11.3075 3.09258 10.9513C3.19847 10.9215 3.29058 10.8555 3.35269 10.7648L5.21002 8.05177C6.04931 6.8257 7.43752 6.09375 8.92331 6.09375H12.5399C14.0257 6.09375 15.4139 6.8257 16.2533 8.05177L18.1105 10.7647C18.1979 10.8924 18.3427 10.9688 18.4973 10.9688H19.9688C21.6747 10.9688 23.0625 12.3566 23.0625 14.0625V15.4688H21.4869C21.1047 14.6921 20.3053 14.1562 19.3828 14.1562C18.4603 14.1562 17.661 14.6921 17.2787 15.4688H14.1494C13.8906 15.4688 13.6807 15.6787 13.6807 15.9375C13.6807 16.1963 13.8906 16.4062 14.1494 16.4062H17.0414C17.0402 16.4374 17.039 16.4685 17.039 16.5C17.039 17.7923 18.0904 18.8438 19.3828 18.8438C20.6751 18.8438 21.7265 17.7923 21.7265 16.5C21.7265 16.4685 21.7254 16.4374 21.7241 16.4062H23.5312C23.7901 16.4062 24 16.1963 24 15.9375V14.0625C24 11.8396 22.1916 10.0312 19.9688 10.0312ZM4.69734 15.0938C5.47275 15.0938 6.10359 15.7246 6.10359 16.5C6.10359 17.2754 5.47275 17.9062 4.69734 17.9062C3.92194 17.9062 3.29109 17.2754 3.29109 16.5C3.29109 15.7246 3.92198 15.0938 4.69734 15.0938ZM19.3828 17.9062C18.6074 17.9062 17.9766 17.2754 17.9766 16.5C17.9766 15.7246 18.6074 15.0938 19.3828 15.0938C20.1582 15.0938 20.7891 15.7246 20.7891 16.5C20.7891 17.2754 20.1582 17.9062 19.3828 17.9062Z" fill="black"/>
<path d="M4.69727 16.9688C4.82055 16.9688 4.94148 16.9186 5.02867 16.8314C5.11586 16.7442 5.16602 16.6233 5.16602 16.5C5.16602 16.3767 5.11586 16.2558 5.02867 16.1686C4.94148 16.0814 4.82055 16.0312 4.69727 16.0312C4.57398 16.0312 4.45305 16.0814 4.36586 16.1686C4.27867 16.2558 4.22852 16.3767 4.22852 16.5C4.22852 16.6233 4.27867 16.7442 4.36586 16.8314C4.45305 16.9186 4.57398 16.9688 4.69727 16.9688Z" fill="black"/>
<path d="M19.3828 16.0312C19.2595 16.0312 19.1386 16.0814 19.0514 16.1686C18.9642 16.2558 18.9141 16.3767 18.9141 16.5C18.9141 16.6233 18.9642 16.7442 19.0514 16.8314C19.1386 16.9185 19.2595 16.9688 19.3828 16.9688C19.5061 16.9688 19.627 16.9186 19.7142 16.8314C19.8014 16.7442 19.8516 16.6233 19.8516 16.5C19.8516 16.3767 19.8014 16.2558 19.7142 16.1686C19.627 16.0814 19.5061 16.0312 19.3828 16.0312Z" fill="black"/>
<path d="M11.2734 10.9688L16.2251 10.9688C16.399 10.9688 16.5586 10.8725 16.6398 10.7187C16.7209 10.5649 16.7102 10.3787 16.6119 10.2353L15.4797 8.58136C14.8152 7.61072 13.7162 7.03125 12.54 7.03125H11.2734C11.0145 7.03125 10.8047 7.24111 10.8047 7.5V10.5C10.8047 10.7589 11.0145 10.9688 11.2734 10.9688ZM11.7422 7.96875H12.54C13.4067 7.96875 14.2165 8.39573 14.7061 9.11091L15.3361 10.0313L11.7422 10.0312V7.96875Z" fill="black"/>
<path d="M8.92344 7.0313C7.7472 7.0313 6.64817 7.61077 5.98367 8.58141L4.8515 10.2352C4.75325 10.3787 4.74252 10.5648 4.82366 10.7186C4.90475 10.8725 5.06441 10.9688 5.23831 10.9688H9.39856C9.65745 10.9688 9.86731 10.7589 9.86731 10.5V7.5C9.86731 7.24111 9.65745 7.03125 9.39856 7.03125H8.92344V7.0313ZM8.92981 10.0313H6.12725L6.75725 9.11105C7.24695 8.39578 8.05672 7.9688 8.92344 7.9688H8.92981V10.0313Z" fill="black"/>
<path d="M12.041 15.4688C11.9173 15.4688 11.7968 15.5189 11.7091 15.6061C11.622 15.6933 11.5723 15.8142 11.5723 15.9375C11.5723 16.0608 11.622 16.1817 11.7091 16.2689C11.7968 16.356 11.9177 16.4062 12.041 16.4062C12.1638 16.4062 12.2848 16.3561 12.3724 16.2689C12.4596 16.1817 12.5093 16.0608 12.5093 15.9375C12.5093 15.8142 12.4596 15.6933 12.3724 15.6061C12.2848 15.5189 12.1643 15.4688 12.041 15.4688Z" fill="black"/>
</svg>
