<svg width="21" height="22" viewBox="0 0 21 22" fill="none" xmlns="http://www.w3.org/2000/svg">
<path fill-rule="evenodd" clip-rule="evenodd" d="M6 0.25C6.41421 0.25 6.75 0.585786 6.75 1V4C6.75 4.41421 6.41421 4.75 6 4.75C5.58579 4.75 5.25 4.41421 5.25 4V1C5.25 0.585786 5.58579 0.25 6 0.25Z" fill="#292D32"/>
<path fill-rule="evenodd" clip-rule="evenodd" d="M14 0.25C14.4142 0.25 14.75 0.585786 14.75 1V4C14.75 4.41421 14.4142 4.75 14 4.75C13.5858 4.75 13.25 4.41421 13.25 4V1C13.25 0.585786 13.5858 0.25 14 0.25Z" fill="#292D32"/>
<path fill-rule="evenodd" clip-rule="evenodd" d="M16.2 14.75C14.8469 14.75 13.75 15.8469 13.75 17.2C13.75 18.5531 14.8469 19.65 16.2 19.65C17.5531 19.65 18.65 18.5531 18.65 17.2C18.65 15.8469 17.5531 14.75 16.2 14.75ZM12.25 17.2C12.25 15.0185 14.0185 13.25 16.2 13.25C18.3815 13.25 20.15 15.0185 20.15 17.2C20.15 19.3815 18.3815 21.15 16.2 21.15C14.0185 21.15 12.25 19.3815 12.25 17.2Z" fill="#292D32"/>
<path fill-rule="evenodd" clip-rule="evenodd" d="M18.4697 19.4697C18.7626 19.1768 19.2374 19.1768 19.5303 19.4697L20.5303 20.4697C20.8232 20.7626 20.8232 21.2374 20.5303 21.5303C20.2374 21.8232 19.7626 21.8232 19.4697 21.5303L18.4697 20.5303C18.1768 20.2374 18.1768 19.7626 18.4697 19.4697Z" fill="#292D32"/>
<path fill-rule="evenodd" clip-rule="evenodd" d="M0.75 8.08984C0.75 7.67563 1.08579 7.33984 1.5 7.33984H18.5C18.9142 7.33984 19.25 7.67563 19.25 8.08984C19.25 8.50406 18.9142 8.83984 18.5 8.83984H1.5C1.08579 8.83984 0.75 8.50406 0.75 8.08984Z" fill="#292D32"/>
<path fill-rule="evenodd" clip-rule="evenodd" d="M2.7371 4.38534C2.09637 5.07535 1.75 6.11497 1.75 7.5V16C1.75 17.385 2.09637 18.4246 2.7371 19.1147C3.36848 19.7946 4.39295 20.25 6 20.25H11.37C11.7842 20.25 12.12 20.5858 12.12 21C12.12 21.4142 11.7842 21.75 11.37 21.75H6C4.10705 21.75 2.63152 21.2054 1.6379 20.1353C0.653634 19.0754 0.25 17.615 0.25 16V7.5C0.25 5.88503 0.653634 4.42465 1.6379 3.36466C2.63152 2.29462 4.10705 1.75 6 1.75H14C15.893 1.75 17.3685 2.29462 18.3621 3.36466C19.3464 4.42465 19.75 5.88503 19.75 7.5V12C19.75 12.4142 19.4142 12.75 19 12.75C18.5858 12.75 18.25 12.4142 18.25 12V7.5C18.25 6.11497 17.9036 5.07535 17.2629 4.38534C16.6315 3.70538 15.607 3.25 14 3.25H6C4.39295 3.25 3.36848 3.70538 2.7371 4.38534Z" fill="#292D32"/>
<path fill-rule="evenodd" clip-rule="evenodd" d="M8.99609 12.6992C8.99609 12.1469 9.44381 11.6992 9.99609 11.6992H10.0051C10.5574 11.6992 11.0051 12.1469 11.0051 12.6992C11.0051 13.2515 10.5574 13.6992 10.0051 13.6992H9.99609C9.44381 13.6992 8.99609 13.2515 8.99609 12.6992Z" fill="#292D32"/>
<path fill-rule="evenodd" clip-rule="evenodd" d="M5.29297 12.6992C5.29297 12.1469 5.74068 11.6992 6.29297 11.6992H6.30195C6.85424 11.6992 7.30195 12.1469 7.30195 12.6992C7.30195 13.2515 6.85424 13.6992 6.30195 13.6992H6.29297C5.74068 13.6992 5.29297 13.2515 5.29297 12.6992Z" fill="#292D32"/>
<path fill-rule="evenodd" clip-rule="evenodd" d="M5.29297 15.6992C5.29297 15.1469 5.74068 14.6992 6.29297 14.6992H6.30195C6.85424 14.6992 7.30195 15.1469 7.30195 15.6992C7.30195 16.2515 6.85424 16.6992 6.30195 16.6992H6.29297C5.74068 16.6992 5.29297 16.2515 5.29297 15.6992Z" fill="#292D32"/>
</svg>
