<svg width="56" height="56" viewBox="0 0 56 56" fill="none" xmlns="http://www.w3.org/2000/svg">
<circle cx="28" cy="28" r="28" fill="#F2F8F7"/>
<path d="M40.6888 36.0571C40.6888 36.5153 40.587 36.9862 40.3706 37.4443C40.1543 37.9025 39.8743 38.3353 39.5052 38.7425C38.8816 39.4298 38.1943 39.9262 37.4179 40.2443C36.6543 40.5625 35.827 40.728 34.9361 40.728C33.6379 40.728 32.2506 40.4225 30.787 39.7989C29.3234 39.1753 27.8597 38.3353 26.4088 37.2789C24.9452 36.2098 23.5579 35.0262 22.2343 33.7153C20.9234 32.3916 19.7397 31.0043 18.6834 29.5534C17.6397 28.1025 16.7997 26.6516 16.1888 25.2134C15.5779 23.7625 15.2725 22.3753 15.2725 21.0516C15.2725 20.1862 15.4252 19.3589 15.7306 18.5953C16.0361 17.8189 16.5197 17.1062 17.1943 16.4698C18.0088 15.668 18.8997 15.2734 19.8416 15.2734C20.1979 15.2734 20.5543 15.3498 20.8725 15.5025C21.2034 15.6553 21.4961 15.8843 21.7252 16.2153L24.6779 20.3771C24.907 20.6953 25.0725 20.988 25.187 21.268C25.3016 21.5353 25.3652 21.8025 25.3652 22.0443C25.3652 22.3498 25.2761 22.6553 25.0979 22.948C24.9325 23.2407 24.6906 23.5462 24.3852 23.8516L23.4179 24.8571C23.2779 24.9971 23.2143 25.1625 23.2143 25.3662C23.2143 25.468 23.227 25.5571 23.2525 25.6589C23.2906 25.7607 23.3288 25.8371 23.3543 25.9134C23.5834 26.3334 23.9779 26.8807 24.5379 27.5425C25.1106 28.2043 25.7216 28.8789 26.3834 29.5534C27.0706 30.228 27.7325 30.8516 28.407 31.4243C29.0688 31.9843 29.6161 32.3662 30.0488 32.5953C30.1125 32.6207 30.1888 32.6589 30.2779 32.6971C30.3797 32.7353 30.4816 32.748 30.5961 32.748C30.8125 32.748 30.9779 32.6716 31.1179 32.5316L32.0852 31.5771C32.4034 31.2589 32.7088 31.0171 33.0016 30.8643C33.2943 30.6862 33.587 30.5971 33.9052 30.5971C34.147 30.5971 34.4016 30.648 34.6816 30.7625C34.9616 30.8771 35.2543 31.0425 35.5725 31.2589L39.7852 34.2498C40.1161 34.4789 40.3452 34.7462 40.4852 35.0643C40.6125 35.3825 40.6888 35.7007 40.6888 36.0571Z" stroke="#6C737F" stroke-width="1.90909" stroke-miterlimit="10"/>
</svg>
