<svg width="24" height="24" viewBox="0 0 25 24" fill="none" xmlns="http://www.w3.org/2000/svg">
<path d="M9.00024 19H8.50024C4.50024 19 2.50024 18 2.50024 13V8C2.50024 4 4.50024 2 8.50024 2H16.5002C20.5002 2 22.5002 4 22.5002 8V13C22.5002 17 20.5002 19 16.5002 19H16.0002C15.6902 19 15.3902 19.15 15.2002 19.4L13.7002 21.4C13.0402 22.28 11.9602 22.28 11.3002 21.4L9.80025 19.4C9.64025 19.18 9.27024 19 9.00024 19Z" stroke="#5089AC" stroke-width="1.45093" stroke-miterlimit="10" stroke-linecap="round" stroke-linejoin="round"/>
<path d="M16.4967 11H16.5057" stroke="#5089AC" stroke-width="1.93458" stroke-linecap="round" stroke-linejoin="round"/>
<path d="M12.4957 11H12.5047" stroke="#5089AC" stroke-width="1.93458" stroke-linecap="round" stroke-linejoin="round"/>
<path d="M8.49475 11H8.50373" stroke="#5089AC" stroke-width="1.93458" stroke-linecap="round" stroke-linejoin="round"/>
</svg>
