<svg width="20" height="20" viewBox="0 0 20 20" fill="none" xmlns="http://www.w3.org/2000/svg">
<path d="M1.43977 12.8391C1.19197 13.0796 1.18586 13.4751 1.42634 13.7229L3.82991 16.2003C3.83006 16.2005 3.83029 16.2005 3.83044 16.2007C3.94404 16.3183 4.1019 16.3926 4.27852 16.3926C4.45514 16.3926 4.61299 16.3183 4.72659 16.2007C4.72674 16.2005 4.72697 16.2005 4.72712 16.2003L7.1313 13.7229C7.37178 13.4751 7.36567 13.0796 7.11787 12.8391C6.87007 12.5986 6.47456 12.6047 6.23408 12.8525L4.90352 14.2238V4.23438C4.90352 3.88892 4.62397 3.60938 4.27852 3.60938C3.93306 3.60938 3.65352 3.88892 3.65352 4.23438V14.2236L2.32356 12.8525C2.08308 12.6047 1.68757 12.5986 1.43977 12.8391Z" fill="#4D5761"/>
<path d="M16.7999 8.07617C16.7999 7.73071 16.5204 7.45117 16.1749 7.45117H9.3927C9.04724 7.45117 8.7677 7.73071 8.7677 8.07617C8.7677 8.42163 9.04724 8.70117 9.3927 8.70117H16.1749C16.5204 8.70117 16.7999 8.42163 16.7999 8.07617Z" fill="#4D5761"/>
<path d="M14.8499 11.9219C14.8499 11.5764 14.5703 11.2969 14.2249 11.2969H9.3927C9.04724 11.2969 8.7677 11.5764 8.7677 11.9219C8.7677 12.2673 9.04724 12.5469 9.3927 12.5469H14.2249C14.5703 12.5469 14.8499 12.2673 14.8499 11.9219Z" fill="#4D5761"/>
<path d="M9.3927 15.1406C9.04724 15.1406 8.7677 15.4202 8.7677 15.7656C8.7677 16.1111 9.04724 16.3906 9.3927 16.3906H12.2748C12.6202 16.3906 12.8998 16.1111 12.8998 15.7656C12.8998 15.4202 12.6202 15.1406 12.2748 15.1406H9.3927Z" fill="#4D5761"/>
<path d="M18.125 3.60938H9.3927C9.04724 3.60938 8.7677 3.88892 8.7677 4.23438C8.7677 4.57983 9.04724 4.85938 9.3927 4.85938H18.125C18.4705 4.85938 18.75 4.57983 18.75 4.23438C18.75 3.88892 18.4705 3.60938 18.125 3.60938Z" fill="#4D5761"/>
</svg>
