<svg width="32" height="30" viewBox="0 0 32 30" fill="none" xmlns="http://www.w3.org/2000/svg">
<path d="M31 4.00135H18V1.00135C18 0.703348 17.868 0.421347 17.638 0.231348C17.41 0.0413475 17.104 -0.0406525 16.816 0.0193475L0.816 3.01935C0.342 3.10735 0 3.51935 0 4.00135V26.0013C0 26.4813 0.342 26.8953 0.816 26.9833L16.816 29.9833C16.876 29.9953 16.938 30.0013 17 30.0013C17.232 30.0013 17.458 29.9213 17.638 29.7713C17.868 29.5813 18 29.2973 18 29.0013V26.0013H31C31.552 26.0013 32 25.5533 32 25.0013V5.00135C32 4.44935 31.552 4.00135 31 4.00135ZM13.752 18.3433C14.116 18.7573 14.074 19.3893 13.658 19.7533C13.468 19.9193 13.234 20.0013 13 20.0013C12.722 20.0013 12.446 19.8853 12.248 19.6593L9.34 16.3373L6.79 19.6173C6.592 19.8693 6.296 20.0013 6 20.0013C5.786 20.0013 5.57 19.9333 5.386 19.7913C4.95 19.4513 4.872 18.8233 5.21 18.3873L7.998 14.8033L5.248 11.6593C4.884 11.2453 4.926 10.6133 5.342 10.2493C5.756 9.88535 6.386 9.92535 6.754 10.3433L9.25 13.1953L12.212 9.38735C12.552 8.95335 13.18 8.87335 13.616 9.21335C14.052 9.55135 14.13 10.1793 13.79 10.6173L10.59 14.7293L13.752 18.3433ZM30 24.0013H18V22.0013H21C21.552 22.0013 22 21.5533 22 21.0013C22 20.4493 21.552 20.0013 21 20.0013H18V18.0013H21C21.552 18.0013 22 17.5533 22 17.0013C22 16.4493 21.552 16.0013 21 16.0013H18V14.0013H21C21.552 14.0013 22 13.5533 22 13.0013C22 12.4493 21.552 12.0013 21 12.0013H18V10.0013H21C21.552 10.0013 22 9.55335 22 9.00135C22 8.44935 21.552 8.00135 21 8.00135H18V6.00135H30V24.0013Z" fill="#5089AC"/>
</svg>
