<svg width="44" height="44" viewBox="0 0 44 44" fill="none" xmlns="http://www.w3.org/2000/svg">
<g opacity="0.2">
<path d="M17.418 25.2078C17.418 26.9861 18.793 28.4161 20.4797 28.4161H23.9263C25.3929 28.4161 26.5846 27.1694 26.5846 25.6111C26.5846 23.9428 25.8513 23.3378 24.7697 22.9528L19.2513 21.0278C18.1696 20.6428 17.4363 20.0561 17.4363 18.3695C17.4363 16.8295 18.628 15.5645 20.0946 15.5645H23.5413C25.228 15.5645 26.603 16.9945 26.603 18.7728" stroke="#12B76A" stroke-width="2.75" stroke-linecap="round" stroke-linejoin="round"/>
<path d="M22.002 13.75V30.25" stroke="#12B76A" stroke-width="2.75" stroke-linecap="round" stroke-linejoin="round"/>
<path d="M40.3327 21.9993C40.3327 32.1193 32.1193 40.3327 21.9993 40.3327C11.8793 40.3327 3.66602 32.1193 3.66602 21.9993C3.66602 11.8793 11.8793 3.66602 21.9993 3.66602" stroke="#12B76A" stroke-width="2.75" stroke-linecap="round" stroke-linejoin="round"/>
<path d="M31.166 5.5V12.8333H38.4993" stroke="#12B76A" stroke-width="2.75" stroke-linecap="round" stroke-linejoin="round"/>
<path d="M40.3327 3.66602L31.166 12.8327" stroke="#12B76A" stroke-width="2.75" stroke-linecap="round" stroke-linejoin="round"/>
</g>
</svg>
