<svg width="20" height="20" viewBox="0 0 20 20" fill="none" xmlns="http://www.w3.org/2000/svg">
<path fill-rule="evenodd" clip-rule="evenodd" d="M6.42423 3.52567C5.83359 4.2589 5.625 5.32619 5.625 6.66797V8.33464C5.625 8.67981 5.34518 8.95964 5 8.95964C4.65482 8.95964 4.375 8.67981 4.375 8.33464V6.66797C4.375 5.25141 4.58308 3.8187 5.45077 2.74152C6.34198 1.63515 7.8097 1.04297 10 1.04297C12.1903 1.04297 13.658 1.63515 14.5492 2.74152C15.4169 3.8187 15.625 5.25141 15.625 6.66797V8.33464C15.625 8.67981 15.3452 8.95964 15 8.95964C14.6548 8.95964 14.375 8.67981 14.375 8.33464V6.66797C14.375 5.32619 14.1664 4.2589 13.5758 3.52567C13.0086 2.82162 11.9764 2.29297 10 2.29297C8.02364 2.29297 6.99135 2.82162 6.42423 3.52567Z" fill="#292D32"/>
<path fill-rule="evenodd" clip-rule="evenodd" d="M2.94178 9.61121C2.51553 10.0375 2.2915 10.8315 2.2915 12.5026V14.1693C2.2915 15.8404 2.51553 16.6344 2.94178 17.0607C3.36802 17.4869 4.16204 17.7109 5.83317 17.7109H14.1665C15.8376 17.7109 16.6317 17.4869 17.0579 17.0607C17.4841 16.6344 17.7082 15.8404 17.7082 14.1693V12.5026C17.7082 10.8315 17.4841 10.0375 17.0579 9.61121C16.6317 9.18497 15.8376 8.96094 14.1665 8.96094H5.83317C4.16204 8.96094 3.36802 9.18497 2.94178 9.61121ZM2.0579 8.72733C2.88165 7.90357 4.17097 7.71094 5.83317 7.71094H14.1665C15.8287 7.71094 17.118 7.90357 17.9418 8.72733C18.7655 9.55108 18.9582 10.8404 18.9582 12.5026V14.1693C18.9582 15.8315 18.7655 17.1208 17.9418 17.9445C17.118 18.7683 15.8287 18.9609 14.1665 18.9609H5.83317C4.17097 18.9609 2.88165 18.7683 2.0579 17.9445C1.23414 17.1208 1.0415 15.8315 1.0415 14.1693V12.5026C1.0415 10.8404 1.23414 9.55108 2.0579 8.72733Z" fill="#292D32"/>
<path fill-rule="evenodd" clip-rule="evenodd" d="M12.4971 13.3333C12.4971 12.8731 12.8702 12.5 13.3304 12.5H13.3379C13.7981 12.5 14.1712 12.8731 14.1712 13.3333C14.1712 13.7936 13.7981 14.1667 13.3379 14.1667H13.3304C12.8702 14.1667 12.4971 13.7936 12.4971 13.3333Z" fill="#292D32"/>
<path fill-rule="evenodd" clip-rule="evenodd" d="M9.1626 13.3333C9.1626 12.8731 9.53569 12.5 9.99593 12.5H10.0034C10.4637 12.5 10.8367 12.8731 10.8367 13.3333C10.8367 13.7936 10.4637 14.1667 10.0034 14.1667H9.99593C9.53569 14.1667 9.1626 13.7936 9.1626 13.3333Z" fill="#292D32"/>
<path fill-rule="evenodd" clip-rule="evenodd" d="M5.82861 13.3333C5.82861 12.8731 6.20171 12.5 6.66195 12.5H6.66943C7.12967 12.5 7.50276 12.8731 7.50276 13.3333C7.50276 13.7936 7.12967 14.1667 6.66943 14.1667H6.66195C6.20171 14.1667 5.82861 13.7936 5.82861 13.3333Z" fill="#292D32"/>
</svg>
