<svg width="300" height="300" viewBox="0 0 300 300" fill="none" xmlns="http://www.w3.org/2000/svg">
<path d="M149.5 271C216.879 271 271.5 216.603 271.5 149.5C271.5 82.3974 216.879 28 149.5 28C82.1213 28 27.5 82.3974 27.5 149.5C27.5 216.603 82.1213 271 149.5 271Z" fill="url(#paint0_linear_2512_16424)"/>
<path fill-rule="evenodd" clip-rule="evenodd" d="M247.005 95.2006C251.132 92.1729 252.023 86.3729 248.996 82.2459C245.968 78.1188 240.168 77.2277 236.041 80.2554C231.914 83.2832 231.023 89.0832 234.05 93.2102C235.918 95.7556 238.84 97.0701 241.773 96.9934C241.983 96.9702 242.2 96.9569 242.421 96.9538C244.026 96.7991 245.611 96.2235 247.005 95.2006ZM204.674 97.7026C213.824 99.7401 222.144 101.012 230.505 99.8765C229.705 99.1496 228.966 98.3324 228.302 97.4273C222.945 90.1257 224.522 79.864 231.824 74.5073C239.126 69.1505 249.387 70.7272 254.744 78.0288C257.53 81.8271 258.441 86.4264 257.645 90.7196C264.257 86.9802 270.143 82.2559 274.715 76.2151C275.904 74.6453 278.13 74.3876 279.689 75.6394C281.248 76.8913 281.548 79.1787 280.36 80.7485C272.104 91.6558 260.571 98.0456 248.688 102.48C247.002 103.301 245.22 103.81 243.42 104.018C229.961 108.898 216.075 107.721 203.102 104.832C201.197 104.408 200.005 102.468 200.439 100.499C200.873 98.5307 202.769 97.2785 204.674 97.7026Z" fill="#5089AC"/>
<path d="M221 97.5C221 74.0279 201.972 55 178.5 55H138V140H178.5C201.972 140 221 120.972 221 97.5Z" fill="url(#paint1_linear_2512_16424)"/>
<path d="M173.408 124.555C167.386 136.231 157.306 143.875 145.895 143.875H134.871C116.419 143.875 101.455 123.883 101.455 99.2278C101.455 74.573 116.419 54.587 134.871 54.58H145.929C157.341 54.58 167.435 62.211 173.442 73.9001C177.315 81.7792 179.328 90.4415 179.328 99.2208C179.328 108 177.315 116.662 173.442 124.542L173.408 124.555Z" fill="#5089AC"/>
<path d="M162.261 124.555C156.253 136.21 146.194 143.848 134.804 143.875C116.365 143.875 101.422 123.869 101.422 99.2278C101.422 74.5869 116.365 54.6078 134.804 54.58C146.194 54.58 156.253 62.211 162.261 73.9001C166.138 81.7779 168.154 90.4407 168.154 99.2208C168.154 108.001 166.138 116.664 162.261 124.542V124.555Z" fill="#E1DCEB"/>
<path d="M135.803 107.46C134.176 104.54 131.453 102.627 128.369 102.62C123.376 102.62 119.33 107.632 119.33 113.805C119.33 119.978 123.376 124.983 128.369 124.99C131.453 124.99 134.176 123.078 135.803 120.15C136.853 118.176 137.399 116.006 137.399 113.807C137.399 111.607 136.853 109.437 135.803 107.463V107.46Z" fill="white"/>
<path d="M135.803 77.3455C134.176 74.4258 131.453 72.5123 128.369 72.5054C123.376 72.5054 119.33 77.5175 119.33 83.6906C119.33 89.8637 123.376 94.8689 128.369 94.8759C131.453 94.8759 134.176 92.9642 135.803 90.0358C136.853 88.0622 137.399 85.892 137.399 83.6924C137.399 81.4928 136.853 79.3225 135.803 77.349V77.3455Z" fill="white"/>
<path d="M98 114.475C98 118.631 101.369 122 105.525 122H127C131.418 122 135 118.418 135 114C135 109.582 131.418 106 127 106H105.525C101.369 106 98 109.369 98 113.525V114.475Z" fill="#5089AC"/>
<path d="M98 83.5C98 87.6421 101.358 91 105.5 91H127.5C131.642 91 135 87.6421 135 83.5C135 79.3579 131.642 76 127.5 76H105.5C101.358 76 98 79.3579 98 83.5Z" fill="#5089AC"/>
<path fill-rule="evenodd" clip-rule="evenodd" d="M158.852 137.179H179.337V140.179H158.852V137.179Z" fill="#5089AC"/>
<path fill-rule="evenodd" clip-rule="evenodd" d="M27.3569 201.844C44.6521 191.459 64.2449 189.482 83.0038 190.103C85.6842 190.192 87.7852 192.437 87.6964 195.117C87.6075 197.798 85.3626 199.899 82.6822 199.81C64.6788 199.213 47.3041 201.195 32.3567 210.171C30.0574 211.551 27.0743 210.807 25.6936 208.507C24.313 206.208 25.0576 203.225 27.3569 201.844Z" fill="#5089AC"/>
<path d="M69 195C69 171.804 87.804 153 111 153H152V237H111C87.804 237 69 218.196 69 195Z" fill="url(#paint2_linear_2512_16424)"/>
<path d="M109.962 222.685C115.99 234.361 126.07 242.005 137.482 242.005H148.539C166.992 242.005 181.956 222.012 181.956 197.358C181.956 172.703 166.992 152.717 148.539 152.71H137.482C126.07 152.71 115.976 160.341 109.962 172.03C106.02 179.887 104.002 188.568 104.072 197.358C104.002 206.147 106.02 214.828 109.962 222.685Z" fill="#5089AC"/>
<path d="M121.108 222.685C127.123 234.34 137.175 241.978 148.573 242.005C167.012 242.005 181.954 221.999 181.954 197.358C181.954 172.717 167.012 152.738 148.573 152.717C137.175 152.717 127.123 160.348 121.108 172.03C117.167 179.887 115.148 188.568 115.219 197.358C115.148 206.147 117.167 214.828 121.108 222.685Z" fill="#E1DCEB"/>
<path d="M151.596 203.287C156.11 203.287 159.77 208.102 159.77 214.042C159.77 219.982 156.11 224.797 151.596 224.797C147.081 224.797 143.422 219.982 143.422 214.042C143.422 208.102 147.081 203.287 151.596 203.287Z" fill="white"/>
<path d="M151.596 168.871C156.11 168.871 159.77 173.686 159.77 179.626C159.77 185.566 156.11 190.381 151.596 190.381C147.081 190.381 143.422 185.566 143.422 179.626C143.422 173.686 147.081 168.871 151.596 168.871Z" fill="white"/>
<path fill-rule="evenodd" clip-rule="evenodd" d="M107.1 234.216H124.351V237.216H107.1V234.216Z" fill="#5089AC"/>
<path fill-rule="evenodd" clip-rule="evenodd" d="M238.071 40.5027C239.377 35.2084 239.292 30.1099 239.448 24.7397C239.479 23.691 238.653 22.8191 237.604 22.7875C236.554 22.7559 235.679 23.5835 235.648 24.6323C235.499 29.7245 235.619 34.5703 234.38 39.5993C234.129 40.6164 234.753 41.6462 235.772 41.8926C236.79 42.1454 237.821 41.5199 238.071 40.5027Z" fill="#5089AC"/>
<path fill-rule="evenodd" clip-rule="evenodd" d="M249.166 50.7634C258.026 42.6892 266.374 32.3027 272.209 21.815C272.717 20.899 272.386 19.7427 271.468 19.2373C270.551 18.7319 269.393 19.0604 268.884 19.9765C263.242 30.1167 255.168 40.1621 246.601 47.9646C245.827 48.6722 245.773 49.8726 246.481 50.6434C247.189 51.4142 248.392 51.471 249.166 50.7634Z" fill="#5089AC"/>
<path fill-rule="evenodd" clip-rule="evenodd" d="M251.412 59.5829C259.516 60.916 267.868 58.6416 275.236 55.4258C276.197 55.0025 276.636 53.8843 276.216 52.9303C275.795 51.97 274.673 51.534 273.711 51.951C267.001 54.8825 259.412 57.0558 252.031 55.8428C250.996 55.6722 250.017 56.3735 249.847 57.4033C249.676 58.4331 250.378 59.4123 251.412 59.5829Z" fill="#5089AC"/>
<path fill-rule="evenodd" clip-rule="evenodd" d="M28.1481 252.552C29.3026 252.141 30.5175 251.594 31.4543 250.802C32.567 249.862 33.0195 248.651 33.3234 247.377C33.7136 245.739 33.8694 243.995 34.3425 242.355C34.5177 241.746 34.8548 241.515 34.9994 241.413C35.365 241.155 35.7346 241.086 36.0822 241.112C36.4943 241.142 37.0603 241.298 37.4325 241.988C37.4856 242.087 37.5545 242.238 37.601 242.444C37.6348 242.596 37.6567 243.069 37.6925 243.264C37.7821 243.744 37.8571 244.224 37.9274 244.708C38.1616 246.315 38.2964 247.681 39.0362 249.158C40.04 251.163 41.0459 252.39 42.4101 252.933C43.7291 253.458 45.3062 253.36 47.3213 252.948C47.513 252.901 47.7028 252.861 47.8906 252.829C48.779 252.674 49.6283 253.257 49.8028 254.142C49.9773 255.026 49.4127 255.888 48.5322 256.083C48.3484 256.123 48.1673 256.162 47.9881 256.197C45.2651 256.871 42.1128 259.277 40.2809 261.383C39.7162 262.033 38.8895 263.849 38.0462 265.007C37.4238 265.862 36.7245 266.425 36.1373 266.624C35.7438 266.758 35.4121 266.738 35.1381 266.67C34.74 266.572 34.4096 266.356 34.1561 266.013C34.0181 265.825 33.89 265.574 33.829 265.253C33.7998 265.098 33.7965 264.705 33.7972 264.528C33.6253 263.936 33.415 263.359 33.2617 262.763C32.8961 261.339 32.1789 260.438 31.3269 259.248C30.5301 258.134 29.6742 257.434 28.4195 256.875C28.2563 256.836 26.9392 256.513 26.4741 256.328C25.7947 256.057 25.4709 255.602 25.3534 255.357C25.1537 254.942 25.1332 254.579 25.173 254.277C25.232 253.83 25.4324 253.448 25.788 253.139C26.0083 252.948 26.3374 252.761 26.778 252.67C27.1184 252.599 28.0213 252.558 28.1481 252.552ZM35.8746 250.232C35.9356 250.368 36.0006 250.505 36.0696 250.643C37.54 253.58 39.1841 255.219 41.1826 256.015L41.2496 256.041C39.9126 257.033 38.7024 258.143 37.7775 259.206C37.3966 259.644 36.8924 260.554 36.3476 261.487C35.8527 259.878 35.0432 258.741 34.0254 257.317C33.2478 256.231 32.433 255.414 31.4318 254.748C32.2087 254.349 32.9499 253.882 33.5954 253.336C34.6703 252.428 35.3809 251.376 35.8746 250.232Z" fill="#E3E3E3"/>
<defs>
<linearGradient id="paint0_linear_2512_16424" x1="148.56" y1="-11.5634" x2="151.038" y2="415.126" gradientUnits="userSpaceOnUse">
<stop stop-color="#F2F2F2"/>
<stop offset="1" stop-color="#EFEFEF"/>
</linearGradient>
<linearGradient id="paint1_linear_2512_16424" x1="221" y1="54.8636" x2="135.856" y2="121.38" gradientUnits="userSpaceOnUse">
<stop stop-color="#E1DCEB"/>
<stop offset="1" stop-color="#B3AFBA"/>
</linearGradient>
<linearGradient id="paint2_linear_2512_16424" x1="69" y1="152.865" x2="153.378" y2="219.568" gradientUnits="userSpaceOnUse">
<stop stop-color="#E1DCEB"/>
<stop offset="1" stop-color="#B3AFBA"/>
</linearGradient>
</defs>
</svg>
