<svg width="34" height="34" viewBox="0 0 34 34" fill="none" xmlns="http://www.w3.org/2000/svg">
<path d="M9.53482 27.909C10.6965 26.6623 12.4673 26.7615 13.4873 28.1215L14.9182 30.034C16.0657 31.5498 17.9215 31.5498 19.069 30.034L20.4998 28.1215C21.5198 26.7615 23.2907 26.6623 24.4523 27.909C26.974 30.6007 29.0282 29.7081 29.0282 25.9398V9.97398C29.0423 4.26482 27.7106 2.83398 22.3557 2.83398H11.6457C6.29065 2.83398 4.95898 4.26482 4.95898 9.97398V25.9256C4.95898 29.7081 7.02732 30.5865 9.53482 27.909Z" stroke="#F79009" stroke-width="2.125" stroke-linecap="round" stroke-linejoin="round"/>
<path d="M11.4701 15.5833H11.4828" stroke="#F79009" stroke-width="2.83333" stroke-linecap="round" stroke-linejoin="round"/>
<path d="M15.4395 15.584H23.2311" stroke="#F79009" stroke-width="2.125" stroke-linecap="round" stroke-linejoin="round"/>
<path d="M11.4701 9.91732H11.4828" stroke="#F79009" stroke-width="2.83333" stroke-linecap="round" stroke-linejoin="round"/>
<path d="M15.4395 9.91602H23.2311" stroke="#F79009" stroke-width="2.125" stroke-linecap="round" stroke-linejoin="round"/>
</svg>
