<svg width="22" height="22" viewBox="0 0 22 22" fill="none" xmlns="http://www.w3.org/2000/svg">
<path d="M5.73938 9.07227H4.4375C4.27402 9.07227 4.11721 9.13736 4.00175 9.25314C3.88629 9.36893 3.82174 9.52594 3.82227 9.68947L3.83133 14.363C3.83133 14.7028 4.10679 14.9782 4.44657 14.9782C4.78634 14.9782 5.0618 14.7028 5.0618 14.363V12.944C5.31335 12.9427 5.58209 12.9416 5.73938 12.9416C6.82039 12.9416 7.69989 12.0737 7.69989 11.0069C7.69989 9.94016 6.82039 9.07227 5.73938 9.07227ZM5.73938 11.7111C5.58069 11.7111 5.31097 11.7122 5.05844 11.7135C5.05713 11.4516 5.05598 11.1696 5.05598 11.0069C5.05598 10.8678 5.05528 10.5765 5.05454 10.3027H5.73934C6.13506 10.3027 6.46938 10.6252 6.46938 11.0069C6.46938 11.3887 6.1351 11.7111 5.73938 11.7111Z" fill="#5089AC"/>
<path d="M10.9725 9.07227H9.6875C9.52414 9.07227 9.36746 9.13723 9.25204 9.25286C9.13662 9.36848 9.07194 9.52528 9.07227 9.68865C9.07227 9.68869 9.08141 14.2105 9.08145 14.2269C9.08207 14.3901 9.14745 14.5463 9.26328 14.6613C9.37857 14.7757 9.53435 14.8399 9.69669 14.8399H9.69903C9.73787 14.8397 10.6544 14.8362 11.0209 14.8298C12.4111 14.8056 13.42 13.5969 13.42 11.9561C13.42 10.2312 12.4365 9.07227 10.9725 9.07227ZM10.9994 13.5996C10.84 13.6024 10.5659 13.6046 10.3099 13.6063C10.3081 13.0719 10.3048 10.8581 10.3038 10.3027H10.9725C12.1018 10.3027 12.1895 11.5682 12.1895 11.9561C12.1895 12.7638 11.8215 13.5852 10.9994 13.5996Z" fill="#5089AC"/>
<path d="M17.4748 10.2534C17.8146 10.2534 18.0901 9.97796 18.0901 9.63818C18.0901 9.29841 17.8146 9.02295 17.4748 9.02295H15.5937C15.254 9.02295 14.9785 9.29841 14.9785 9.63818V14.2794C14.9785 14.6192 15.254 14.8947 15.5937 14.8947C15.9335 14.8947 16.209 14.6192 16.209 14.2794V12.5301H17.3254C17.6652 12.5301 17.9407 12.2547 17.9407 11.9149C17.9407 11.5751 17.6652 11.2996 17.3254 11.2996H16.209V10.2534H17.4748Z" fill="#5089AC"/>
<path d="M19.2852 6.44727H18.834V6.27176C18.834 5.4809 18.5343 4.72929 17.9902 4.15531L15.4347 1.45972C14.8565 0.849822 14.0428 0.5 13.2023 0.5H5.01172C3.994 0.5 3.16602 1.32798 3.16602 2.3457V6.44727H2.71484C1.69712 6.44727 0.869141 7.27525 0.869141 8.29297V15.6758C0.869141 16.6935 1.69712 17.5215 2.71484 17.5215H3.16602V19.6543C3.16602 20.672 3.994 21.5 5.01172 21.5H16.9883C18.006 21.5 18.834 20.672 18.834 19.6543V17.5215H19.2852C20.3029 17.5215 21.1309 16.6935 21.1309 15.6758V8.29297C21.1309 7.27525 20.3029 6.44727 19.2852 6.44727ZM4.39648 2.3457C4.39648 2.00646 4.67248 1.73047 5.01172 1.73047H13.2023C13.7066 1.73047 14.1948 1.94035 14.5418 2.30633L17.0973 5.00192C17.4237 5.34628 17.6035 5.79725 17.6035 6.27176V6.44727H4.39648V2.3457ZM17.6035 19.6543C17.6035 19.9935 17.3275 20.2695 16.9883 20.2695H5.01172C4.67248 20.2695 4.39648 19.9935 4.39648 19.6543V17.5215H17.6035V19.6543ZM19.9004 15.6758C19.9004 16.015 19.6244 16.291 19.2852 16.291H2.71484C2.3756 16.291 2.09961 16.015 2.09961 15.6758V8.29297C2.09961 7.95373 2.3756 7.67773 2.71484 7.67773H19.2852C19.6244 7.67773 19.9004 7.95373 19.9004 8.29297V15.6758Z" fill="#5089AC"/>
</svg>
