<svg width="24" height="24" viewBox="0 0 24 24" fill="none" xmlns="http://www.w3.org/2000/svg">
<path d="M7.79998 22.1502C5.14998 22.1502 2.98997 20.0002 2.98997 17.3402V14.5002C2.98997 13.8302 3.64998 13.3802 4.27998 13.6002C4.53998 13.6902 4.79998 13.7502 5.06998 13.7902C5.18998 13.8102 5.30997 13.8302 5.42997 13.8302C5.57997 13.8502 5.73997 13.8602 5.88997 13.8602C6.99997 13.8602 8.09998 13.4502 8.96998 12.7402C9.79998 13.4502 10.87 13.8602 12.01 13.8602C13.15 13.8602 14.21 13.4702 15.04 12.7502C15.9 13.4502 16.98 13.8602 18.08 13.8602C18.25 13.8602 18.43 13.8502 18.59 13.8302C18.71 13.8202 18.81 13.8102 18.92 13.7902C19.22 13.7502 19.49 13.6702 19.76 13.5802C20.38 13.3702 21.03 13.8302 21.03 14.4802V17.3402C21.03 19.9902 18.88 22.1502 16.22 22.1502H7.79998Z" fill="#292D32"/>
<path d="M21.9799 8.58961L21.6999 5.92961C21.2999 3.02961 19.9799 1.84961 17.1699 1.84961H6.81994C3.99994 1.84961 2.68994 3.02961 2.27994 5.95961L2.01994 8.59961C1.91994 9.62961 2.19994 10.6296 2.80994 11.4096C3.53994 12.3596 4.65994 12.8996 5.90994 12.8996C7.11994 12.8996 8.27994 12.2896 9.01994 11.3196C9.66994 12.2896 10.7799 12.8996 12.0199 12.8996C13.2599 12.8996 14.3499 12.3196 15.0099 11.3596C15.7499 12.3096 16.8999 12.8996 18.0899 12.8996C19.3699 12.8996 20.5199 12.3296 21.2399 11.3296C21.8199 10.5596 22.0799 9.58961 21.9799 8.58961ZM13.4999 7.72961H10.4999C10.0899 7.72961 9.74994 7.39961 9.74994 6.97961C9.74994 6.56961 10.0899 6.22961 10.4999 6.22961H13.4999C13.9099 6.22961 14.2499 6.56961 14.2499 6.97961C14.2499 7.39961 13.9099 7.72961 13.4999 7.72961Z" fill="#292D32"/>
</svg>
