<svg width="64" height="64" viewBox="0 0 64 64" fill="none" xmlns="http://www.w3.org/2000/svg">
<circle cx="32" cy="32" r="31" fill="#5089AC" stroke="white" stroke-width="2"/>
<path d="M32 24.5869V29.0269" stroke="white" stroke-width="2" stroke-miterlimit="10" stroke-linecap="round"/>
<path d="M32.0285 18.667C27.1218 18.667 23.1485 22.6403 23.1485 27.547V30.347C23.1485 31.2537 22.7751 32.6137 22.3085 33.387L20.6152 36.2137C19.5752 37.9603 20.2951 39.907 22.2151 40.547C28.5885 42.667 35.4818 42.667 41.8551 40.547C43.6551 39.947 44.4285 37.8403 43.4551 36.2137L41.7618 33.387C41.2951 32.6137 40.9218 31.2403 40.9218 30.347V27.547C40.9085 22.667 36.9085 18.667 32.0285 18.667Z" stroke="white" stroke-width="2" stroke-miterlimit="10" stroke-linecap="round"/>
<path d="M36.4405 41.0938C36.4405 43.5337 34.4405 45.5337 32.0005 45.5337C30.7872 45.5337 29.6672 45.0271 28.8672 44.2271C28.0672 43.4271 27.5605 42.3071 27.5605 41.0938" stroke="white" stroke-width="2" stroke-miterlimit="10"/>
</svg>
