<svg width="24" height="24" viewBox="0 0 24 24" fill="none" xmlns="http://www.w3.org/2000/svg">
<path d="M12 22.75C9.87386 22.75 7.79545 22.1195 6.02763 20.9383C4.2598 19.7571 2.88194 18.0782 2.0683 16.1139C1.25466 14.1495 1.04177 11.9881 1.45656 9.90278C1.87135 7.81749 2.89519 5.90202 4.39861 4.39861C5.90202 2.89519 7.81749 1.87135 9.90278 1.45656C11.9881 1.04177 14.1495 1.25466 16.1139 2.0683C18.0782 2.88194 19.7571 4.2598 20.9383 6.02763C22.1195 7.79545 22.75 9.87386 22.75 12C22.7468 14.8501 21.6132 17.5826 19.5979 19.5979C17.5826 21.6132 14.8501 22.7468 12 22.75ZM12 2.75001C10.1705 2.75001 8.38214 3.29251 6.86098 4.30891C5.33983 5.32531 4.15423 6.76997 3.45412 8.46018C2.75401 10.1504 2.57083 12.0103 2.92774 13.8046C3.28465 15.5989 4.16563 17.2471 5.45927 18.5407C6.7529 19.8344 8.4011 20.7154 10.1954 21.0723C11.9897 21.4292 13.8496 21.246 15.5398 20.5459C17.23 19.8458 18.6747 18.6602 19.6911 17.139C20.7075 15.6179 21.25 13.8295 21.25 12C21.2474 9.54757 20.272 7.19633 18.5378 5.46219C16.8037 3.72805 14.4524 2.75265 12 2.75001ZM18 12C18 10.8133 17.6481 9.65328 16.9888 8.66658C16.3295 7.67989 15.3925 6.91085 14.2961 6.45673C13.1997 6.0026 11.9934 5.88378 10.8295 6.11529C9.66558 6.34681 8.59648 6.91825 7.75737 7.75737C6.91825 8.59648 6.34681 9.66558 6.11529 10.8295C5.88378 11.9934 6.0026 13.1997 6.45673 14.2961C6.91085 15.3925 7.67989 16.3295 8.66658 16.9888C9.65328 17.6481 10.8133 18 12 18C13.5913 18 15.1174 17.3679 16.2426 16.2426C17.3679 15.1174 18 13.5913 18 12Z" fill="#5089AC"/>
</svg>
