<svg width="400" height="267" viewBox="0 0 400 267" fill="none" xmlns="http://www.w3.org/2000/svg">
<g clip-path="url(#clip0_10263_126026)">
<mask id="mask0_10263_126026" style="mask-type:luminance" maskUnits="userSpaceOnUse" x="0" y="-1" width="400" height="268">
<path d="M0 -0.000518799H400V266.666H0V-0.000518799Z" fill="white"/>
</mask>
<g mask="url(#mask0_10263_126026)">
<path d="M319.338 198.328L294.899 241.071L246.546 241.768C245.007 241.791 243.749 242.999 243.665 244.535L292.838 244.674L294.687 244.611L356.257 244.732L368.699 223.274L384.593 200.496C385.635 199.002 384.562 196.955 382.741 196.961L321.281 197.196C320.478 197.199 319.737 197.63 319.338 198.328Z" fill="#ECECEC"/>
<path d="M384.601 198.581C384.601 198.592 384.502 198.602 384.307 198.613C384.077 198.62 383.792 198.63 383.442 198.643C382.633 198.657 381.523 198.676 380.118 198.7C377.179 198.723 373.015 198.756 367.891 198.797C357.523 198.82 343.282 198.851 327.552 198.886C326.568 198.886 325.589 198.886 324.616 198.885C323.693 198.814 322.856 199.221 322.377 199.943C321.45 201.614 320.537 203.26 319.64 204.879C317.84 208.126 316.104 211.26 314.449 214.247C311.135 220.202 308.147 225.569 305.63 230.093C303.119 234.559 301.078 238.188 299.638 240.749C298.938 241.968 298.385 242.93 297.982 243.632C297.802 243.932 297.656 244.175 297.538 244.373C297.435 244.539 297.377 244.621 297.368 244.616C297.359 244.611 297.398 244.518 297.483 244.343C297.588 244.137 297.716 243.883 297.875 243.571C298.254 242.857 298.773 241.875 299.431 240.633C300.831 238.049 302.814 234.387 305.254 229.881C307.74 225.338 310.688 219.95 313.96 213.971C315.605 210.979 317.33 207.839 319.119 204.586C320.021 202.954 320.939 201.294 321.871 199.609C322.44 198.7 323.593 198.188 324.616 198.277H327.552C343.282 198.311 357.523 198.343 367.891 198.366C373.015 198.406 377.179 198.439 380.118 198.462C381.523 198.486 382.633 198.506 383.442 198.52C383.792 198.532 384.077 198.542 384.307 198.55C384.502 198.561 384.601 198.57 384.601 198.581Z" fill="#E1E1E1"/>
<path d="M341.273 220.068C340.186 221.274 340.16 223.024 341.216 223.976C342.272 224.929 344.01 224.723 345.097 223.517C346.185 222.312 346.21 220.562 345.154 219.61C344.098 218.657 342.361 218.862 341.273 220.068Z" fill="white"/>
<path d="M30.1012 199.133V224.694H25.8335V227.469H30.1012V244.577H109.877V229.01H103.968V225.619H109.877V220.533H112.503V218.221H109.385V199.133H30.1012Z" fill="#F5F5F5"/>
<path d="M88.6921 199.207V244.292H109.877V228.725H103.968V225.619L109.877 225.724V220.638L112.555 220.642L112.503 218.013L109.385 217.936V199.133L88.6921 199.207Z" fill="#E1E1E1"/>
<path d="M90.2025 227.102C90.2025 227.258 75.7668 227.385 57.9636 227.385C40.154 227.385 25.7214 227.258 25.7214 227.102C25.7214 226.945 40.154 226.818 57.9636 226.818C75.7668 226.818 90.2025 226.945 90.2025 227.102Z" fill="#E1E1E1"/>
<path d="M90.2025 224.505C90.2025 224.662 75.7668 224.788 57.9636 224.788C40.154 224.788 25.7214 224.662 25.7214 224.505C25.7214 224.349 40.154 224.222 57.9636 224.222C75.7668 224.222 90.2025 224.349 90.2025 224.505Z" fill="#E1E1E1"/>
<path d="M94.3429 217.517C94.3429 217.674 79.9071 217.8 62.1039 217.8C44.2943 217.8 29.8618 217.674 29.8618 217.517C29.8618 217.36 44.2943 217.234 62.1039 217.234C79.9071 217.234 94.3429 217.36 94.3429 217.517Z" fill="#E1E1E1"/>
<path d="M94.7416 236.559C94.7416 236.716 80.3058 236.843 62.5026 236.843C44.693 236.843 30.2605 236.716 30.2605 236.559C30.2605 236.403 44.693 236.276 62.5026 236.276C80.3058 236.276 94.7416 236.403 94.7416 236.559Z" fill="#E1E1E1"/>
<path d="M296.31 90.3264H264.781C262.603 90.3264 260.836 88.56 260.836 86.3814V42.7419C260.836 40.5632 262.603 38.7968 264.781 38.7968H284.777L300.255 54.7499V86.3814C300.255 88.56 298.489 90.3264 296.31 90.3264Z" fill="#ECECEC"/>
<path d="M284.777 38.797V51.0791C284.777 53.1053 286.419 54.7479 288.446 54.7485L300.255 54.7501L284.777 38.797Z" fill="#F5F5F5"/>
<path d="M284.938 52.1569C284.938 52.1569 284.783 55.1355 288.174 56.1147C288.302 56.1515 288.432 56.1793 288.563 56.2022C290.105 56.4779 300.256 58.2833 300.256 58.0502V54.7499H288.446C288.446 54.7499 285.497 54.6491 284.938 52.1569Z" fill="#E1E1E1"/>
<path d="M296.311 90.3264C296.309 90.3078 296.547 90.3307 296.992 90.2454C297.432 90.1638 298.099 89.9659 298.78 89.4118C299.441 88.8646 300.125 87.9078 300.191 86.6294C300.211 85.3579 300.189 83.8811 300.189 82.2326C300.177 75.6246 300.16 66.1707 300.14 54.7499L300.172 54.831C295.486 50.008 290.26 44.6294 284.682 38.8896L284.778 38.9302C281.07 38.9312 277.211 38.9328 273.239 38.9344C271.254 38.935 269.24 38.935 267.204 38.9355C266.695 38.9355 266.184 38.9355 265.672 38.936C265.159 38.943 264.643 38.9094 264.159 38.9915C263.179 39.1483 262.268 39.7152 261.687 40.5328C261.282 41.0992 261.032 41.7787 260.99 42.471C260.963 43.1696 260.982 43.9008 260.976 44.6107C260.976 46.039 260.975 47.4582 260.975 48.8672C260.975 51.6848 260.974 54.4614 260.973 57.1894C260.971 62.6454 260.967 67.9083 260.966 72.9222C260.964 75.4283 260.962 77.8731 260.959 80.248C260.958 81.4358 260.957 82.6054 260.956 83.7579C260.956 84.3339 260.955 84.9051 260.955 85.4715C260.964 86.0411 260.918 86.6038 261.027 87.1307C261.232 88.1974 261.916 89.1286 262.811 89.6646C263.258 89.935 263.756 90.1094 264.264 90.1782C264.767 90.2416 265.3 90.2107 265.815 90.2192C267.885 90.2224 269.871 90.2256 271.766 90.2283C279.344 90.247 285.478 90.2619 289.725 90.272C291.84 90.2838 293.484 90.2923 294.608 90.2982C295.161 90.304 295.584 90.3088 295.878 90.312C296.164 90.3168 296.311 90.3264 296.311 90.3264C296.311 90.3264 296.164 90.336 295.878 90.3403C295.584 90.344 295.161 90.3483 294.608 90.3542C293.484 90.36 291.84 90.3691 289.725 90.3803C285.478 90.391 279.344 90.4059 271.766 90.4246C269.871 90.4272 267.885 90.4304 265.815 90.4336C265.298 90.4256 264.78 90.4603 264.235 90.3947C263.698 90.3232 263.17 90.1403 262.696 89.8555C261.747 89.2907 261.021 88.3062 260.801 87.1755C260.684 86.6048 260.731 86.0331 260.72 85.4715C260.72 84.9051 260.719 84.3339 260.719 83.7579C260.718 82.6054 260.717 81.4358 260.715 80.248C260.714 77.8731 260.711 75.4283 260.709 72.9222C260.707 67.9083 260.704 62.6454 260.701 57.1894C260.7 54.4614 260.7 51.6848 260.7 48.8672C260.699 47.4582 260.699 46.039 260.699 44.6107C260.705 43.8923 260.684 43.1888 260.713 42.4512C260.759 41.7088 261.027 40.9792 261.461 40.3712C262.084 39.4944 263.061 38.8859 264.114 38.7174C264.647 38.6294 265.164 38.6667 265.672 38.6587H267.204C269.24 38.6592 271.254 38.6592 273.239 38.6598C277.211 38.6608 281.07 38.6624 284.778 38.664H284.834L284.874 38.704C290.442 44.4528 295.66 49.839 300.339 54.6694L300.372 54.7035V54.7499C300.351 66.1707 300.334 75.6246 300.322 82.2326C300.312 83.8838 300.325 85.351 300.294 86.6363C300.215 87.9478 299.504 88.9179 298.824 89.4662C298.123 90.0214 297.444 90.2096 296.998 90.2806C296.773 90.319 296.6 90.3275 296.485 90.3264C296.369 90.3296 296.311 90.3264 296.311 90.3264Z" fill="#E1E1E1"/>
<path d="M300.255 54.7501C300.255 54.7597 300.151 54.7688 299.952 54.7779C299.723 54.7848 299.435 54.7933 299.083 54.804C298.288 54.8147 297.205 54.8296 295.884 54.8477C294.521 54.8557 292.915 54.8659 291.139 54.8765C290.244 54.8771 289.306 54.8781 288.333 54.8787C287.326 54.86 286.294 54.3981 285.589 53.5907C285.235 53.1901 284.971 52.7192 284.814 52.2221C284.648 51.7309 284.628 51.1907 284.642 50.7155C284.644 49.7448 284.646 48.8072 284.649 47.9133C284.661 46.1368 284.67 44.5309 284.679 43.1688C284.697 41.8472 284.712 40.7635 284.723 39.9699C284.733 39.6173 284.742 39.3299 284.749 39.1C284.758 38.9016 284.768 38.7971 284.778 38.7971C284.787 38.7971 284.796 38.9016 284.805 39.1C284.812 39.3299 284.821 39.6173 284.831 39.9699C284.843 40.7635 284.858 41.8472 284.875 43.1688C284.884 44.5309 284.894 46.1368 284.906 47.9133C284.908 48.8072 284.911 49.7448 284.913 50.7155C284.851 51.6749 285.127 52.6589 285.798 53.4072C286.452 54.156 287.406 54.5853 288.341 54.6067C289.311 54.6115 290.246 54.6163 291.139 54.6205C292.915 54.6323 294.521 54.6424 295.884 54.6509C297.205 54.6696 298.288 54.6845 299.083 54.6957C299.435 54.7064 299.723 54.7155 299.952 54.7219C300.151 54.7309 300.255 54.7405 300.255 54.7501Z" fill="#E1E1E1"/>
<path d="M284.182 49.7567C284.182 49.8335 280.458 49.8953 275.865 49.8953C271.271 49.8953 267.548 49.8335 267.548 49.7567C267.548 49.6799 271.271 49.618 275.865 49.618C280.458 49.618 284.182 49.6799 284.182 49.7567Z" fill="#E1E1E1"/>
<path d="M292.073 55.8835C292.073 55.9603 286.582 56.0222 279.811 56.0222C273.036 56.0222 267.547 55.9603 267.547 55.8835C267.547 55.8067 273.036 55.7448 279.811 55.7448C286.582 55.7443 292.073 55.8067 292.073 55.8835Z" fill="#E1E1E1"/>
<path d="M292.073 62.0103C292.073 62.0871 286.582 62.1489 279.811 62.1489C273.036 62.1489 267.547 62.0871 267.547 62.0103C267.547 61.9335 273.036 61.8711 279.811 61.8711C286.582 61.8711 292.073 61.9335 292.073 62.0103Z" fill="#E1E1E1"/>
<path d="M292.073 68.1369C292.073 68.2137 286.582 68.2761 279.811 68.2761C273.036 68.2761 267.547 68.2137 267.547 68.1369C267.547 68.0601 273.036 67.9982 279.811 67.9982C286.582 67.9982 292.073 68.0601 292.073 68.1369Z" fill="#E1E1E1"/>
<path d="M292.073 74.2636C292.073 74.3404 286.582 74.4028 279.811 74.4028C273.036 74.4028 267.547 74.3404 267.547 74.2636C267.547 74.1868 273.036 74.125 279.811 74.125C286.582 74.125 292.073 74.1868 292.073 74.2636Z" fill="#E1E1E1"/>
<path d="M292.073 81.8202C292.073 81.897 286.582 81.9594 279.811 81.9594C273.036 81.9594 267.547 81.897 267.547 81.8202C267.547 81.7434 273.036 81.6815 279.811 81.6815C286.582 81.6815 292.073 81.7434 292.073 81.8202Z" fill="#E1E1E1"/>
<path d="M278.295 81.8202H256.018C254.775 81.8202 253.767 80.8122 253.767 79.569L253.767 72.0394C253.767 70.7957 254.775 69.7877 256.018 69.7877H278.295C279.538 69.7877 280.546 70.7957 280.546 72.0394V79.569C280.546 80.8122 279.538 81.8202 278.295 81.8202Z" fill="#E1E1E1"/>
<path d="M263.172 75.3619C263.172 74.8622 262.847 74.5699 262.205 74.5699H261.347V76.1475H262.205C262.847 76.1475 263.172 75.8552 263.172 75.3619ZM264.237 75.3619C264.237 76.3747 263.477 77.0051 262.263 77.0051H261.347V78.2584H260.295V73.7123H262.263C263.477 73.7123 264.237 74.3422 264.237 75.3619Z" fill="white"/>
<path d="M266.996 77.3944C267.898 77.3944 268.49 76.8558 268.49 75.9854C268.49 75.115 267.898 74.5758 266.996 74.5758H266.035V77.3944H266.996ZM264.983 73.7123H267.048C268.535 73.7123 269.555 74.6083 269.555 75.9854C269.555 77.3619 268.535 78.2584 267.048 78.2584H264.983V73.7123Z" fill="white"/>
<path d="M271.4 74.5566V75.7577H273.504V76.6019H271.4V78.2579H270.347V73.7123H273.783V74.5566H271.4Z" fill="white"/>
<path d="M137.067 71.2042H154.1V41.8485H137.067V71.2042Z" fill="#ECECEC"/>
<path d="M89.551 71.6714H103.001V35.0261H89.551V71.6714Z" fill="#ECECEC"/>
<path d="M89.3953 37.6728C89.3953 37.5603 92.471 37.4685 96.2641 37.4685C100.058 37.4685 103.133 37.5603 103.133 37.6728C103.133 37.7853 100.058 37.8771 96.2641 37.8771C92.471 37.8771 89.3953 37.7853 89.3953 37.6728Z" fill="#FAFAFA"/>
<path d="M90.1394 39.4108C90.1394 39.2977 93.0482 39.2065 96.6359 39.2065C100.225 39.2065 103.132 39.2977 103.132 39.4108C103.132 39.5233 100.225 39.6151 96.6359 39.6151C93.0482 39.6151 90.1394 39.5233 90.1394 39.4108Z" fill="#FAFAFA"/>
<path d="M95.8913 64.4457C95.7782 64.4457 95.687 59.5913 95.687 53.6046C95.687 47.6158 95.7782 42.7625 95.8913 42.7625C96.0038 42.7625 96.0955 47.6158 96.0955 53.6046C96.0955 59.5913 96.0038 64.4457 95.8913 64.4457Z" fill="#FAFAFA"/>
<path d="M89.5503 67.7973C89.5503 67.6847 92.4986 67.593 96.1343 67.593C99.7716 67.593 102.719 67.6847 102.719 67.7973C102.719 67.9103 99.7716 68.0015 96.1343 68.0015C92.4986 68.0015 89.5503 67.9103 89.5503 67.7973Z" fill="#FAFAFA"/>
<path d="M89.5503 69.3697C89.5503 69.2572 92.5727 69.1654 96.2996 69.1654C100.028 69.1654 103.05 69.2572 103.05 69.3697C103.05 69.4828 100.028 69.574 96.2996 69.574C92.5727 69.574 89.5503 69.4828 89.5503 69.3697Z" fill="#FAFAFA"/>
<path d="M102.993 71.6714H113.798V31.0629H102.993V71.6714Z" fill="#E1E1E1"/>
<path d="M102.924 49.7131C102.961 49.6689 103.593 50.119 104.596 50.8699C105.709 51.7142 107.033 52.7185 108.495 53.8278C109.956 54.9409 111.277 55.9473 112.388 56.7942C113.38 57.5595 113.983 58.0486 113.95 58.095C113.918 58.1403 113.256 57.7345 112.218 57.0278C111.181 56.3217 109.772 55.3121 108.248 54.1531C106.724 52.9942 105.374 51.9067 104.416 51.0961C103.458 50.2859 102.89 49.7563 102.924 49.7131Z" fill="#FAFAFA"/>
<path d="M102.878 43.3551C102.951 43.2692 105.427 45.2703 108.407 47.8239C111.388 50.378 113.744 52.5178 113.67 52.6036C113.597 52.689 111.122 50.6884 108.141 48.1338C105.161 45.5807 102.804 43.441 102.878 43.3551Z" fill="#FAFAFA"/>
<path d="M56.0347 71.7003H61.2027V33.0149H56.0347V71.7003Z" fill="#ECECEC"/>
<path d="M56.2478 38.2852C56.2478 38.4196 57.3321 38.5284 58.6691 38.5284C60.0062 38.5284 61.0905 38.4196 61.0905 38.2852C61.0905 38.1508 60.0062 38.042 58.6691 38.042C57.3321 38.042 56.2478 38.1508 56.2478 38.2852Z" fill="#FAFAFA"/>
<path d="M56.1426 37.4431C56.1426 37.5775 57.2268 37.6863 58.5644 37.6863C59.901 37.6863 60.9852 37.5775 60.9852 37.4431C60.9852 37.3087 59.901 37.1993 58.5644 37.1993C57.2268 37.1993 56.1426 37.3087 56.1426 37.4431Z" fill="#FAFAFA"/>
<path d="M56.2478 68.7087C56.2478 68.8431 57.3321 68.9519 58.6691 68.9519C60.0062 68.9519 61.0905 68.8431 61.0905 68.7087C61.0905 68.5743 60.0062 68.4655 58.6691 68.4655C57.3321 68.4655 56.2478 68.5743 56.2478 68.7087Z" fill="#FAFAFA"/>
<path d="M56.1426 67.8665C56.1426 68.0009 57.2268 68.1097 58.5644 68.1097C59.901 68.1097 60.9852 68.0009 60.9852 67.8665C60.9852 67.7321 59.901 67.6233 58.5644 67.6233C57.2268 67.6233 56.1426 67.7321 56.1426 67.8665Z" fill="#FAFAFA"/>
<path d="M58.7752 62.8137C58.9096 62.8137 59.0189 58.3828 59.0189 52.9183C59.0189 47.4521 58.9096 43.0228 58.7752 43.0228C58.6408 43.0228 58.532 47.4521 58.532 52.9183C58.532 58.3828 58.6408 62.8137 58.7752 62.8137Z" fill="#FAFAFA"/>
<path d="M79.1936 71.4517H89.5296V32.7669H79.1936V71.4517Z" fill="#E1E1E1"/>
<path d="M86.6223 71.948C86.6303 71.9512 86.6708 71.8803 86.7428 71.7379C86.8164 71.596 86.9162 71.3805 87.0372 71.0936C87.2724 70.5182 87.6052 69.6504 87.7882 68.4707C87.953 67.3112 87.9999 65.7544 87.1839 64.2147C86.7796 63.459 86.1668 62.7395 85.3519 62.1934C84.5402 61.6584 83.4783 61.315 82.3743 61.4899C81.8255 61.5822 81.2831 61.812 80.8351 62.2008C80.3866 62.579 80.0559 63.1859 80.0943 63.8323C80.1226 64.4803 80.4954 65.0654 80.9786 65.4718C81.4634 65.8814 82.0847 66.1619 82.7412 66.2206C84.0522 66.3736 85.4111 65.8216 86.4042 64.8867C87.434 63.9667 88.0612 62.5912 88.2218 61.1694C88.3914 59.7379 88.1647 58.2579 87.6863 56.8531C87.202 55.4494 86.4143 54.0627 85.1524 53.083C84.5252 52.603 83.746 52.2558 82.9204 52.204C82.0975 52.1326 81.2122 52.3955 80.5988 53.0275C80.2927 53.3422 80.0874 53.7822 80.0676 54.2376C80.0452 54.6942 80.1946 55.1352 80.4234 55.5027C80.8874 56.2488 81.6794 56.7256 82.5092 56.9262C84.1994 57.2899 85.9599 56.6211 87.0623 55.4008C88.1754 54.1774 88.6692 52.5747 88.8351 51.0456C88.9892 49.5059 88.8751 47.9576 88.3903 46.5304C87.9178 45.1096 86.9828 43.8312 85.7204 43.0958C84.4868 42.3475 82.9252 42.1022 81.6143 42.6654C80.9652 42.9299 80.3887 43.5278 80.2788 44.2435C80.1487 44.9406 80.3412 45.6542 80.7492 46.1923C81.6154 47.284 83.1007 47.4664 84.2319 47.1139C85.3946 46.7555 86.2852 45.9736 86.978 45.1635C88.3748 43.5096 88.9786 41.5523 89.0394 39.859C89.0996 38.147 88.6276 36.708 88.0842 35.6552C87.5327 34.595 86.9066 33.8968 86.4596 33.4638C86.2314 33.2504 86.0516 33.0947 85.9226 33.0008C85.7946 32.9038 85.7274 32.8579 85.722 32.8643C85.6548 32.9134 86.8506 33.6387 87.9151 35.74C88.4218 36.7832 88.8516 38.1928 88.7674 39.8467C88.6836 41.4846 88.0735 43.3678 86.7167 44.9395C86.0442 45.7128 85.185 46.4398 84.1247 46.7539C83.1007 47.0702 81.7748 46.8648 81.0708 45.9491C80.7332 45.5016 80.5754 44.8867 80.6874 44.323C80.7834 43.7486 81.2196 43.2942 81.7855 43.0574C82.9338 42.5699 84.3567 42.7832 85.4895 43.4803C86.649 44.164 87.505 45.3358 87.9508 46.6814C88.4036 48.0254 88.513 49.5198 88.361 50.9939C88.2004 52.4584 87.7231 53.9608 86.7039 55.075C85.7178 56.1752 84.098 56.7758 82.6186 56.452C81.8948 56.2771 81.217 55.8616 80.8362 55.2462C80.4362 54.6419 80.4484 53.8526 80.9508 53.3592C81.4335 52.8595 82.1818 52.6179 82.8879 52.684C83.6063 52.7278 84.2916 53.027 84.865 53.4632C86.018 54.3502 86.7839 55.667 87.2463 57.0035C87.7119 58.355 87.9306 59.7704 87.7764 61.116C87.6271 62.459 87.0596 63.716 86.1124 64.5736C85.1972 65.4456 83.9556 65.9496 82.785 65.8195C81.6479 65.7251 80.5396 64.8584 80.4692 63.8131C80.4346 63.2979 80.6884 62.804 81.074 62.4702C81.4575 62.1299 81.9444 61.915 82.4319 61.8291C83.4298 61.66 84.4127 61.9592 85.1834 62.4531C85.9551 62.9566 86.5503 63.6323 86.9455 64.3459C87.7423 65.7896 87.7359 67.3064 87.5999 68.4451C87.45 69.6051 87.1503 70.476 86.946 71.0584C86.7338 71.6397 86.6036 71.9395 86.6223 71.948Z" fill="#FAFAFA"/>
<path d="M61.1201 71.4683H79.0535V36.2379H61.1201V71.4683Z" fill="#FAFAFA"/>
<path d="M61.7354 42.0918C61.7354 42.2262 65.6212 42.335 70.4138 42.335C75.209 42.335 79.0938 42.2262 79.0938 42.0918C79.0938 41.9574 75.209 41.8486 70.4138 41.8486C65.6212 41.8486 61.7354 41.9574 61.7354 42.0918Z" fill="#E1E1E1"/>
<path d="M61.5125 44.7624C61.5125 44.8968 65.3493 45.0061 70.0805 45.0061C74.8133 45.0061 78.6485 44.8968 78.6485 44.7624C78.6485 44.628 74.8133 44.5192 70.0805 44.5192C65.3493 44.5192 61.5125 44.628 61.5125 44.7624Z" fill="#E1E1E1"/>
<path d="M60.9365 67.4858C60.9365 67.6202 64.9771 67.7295 69.9595 67.7295C74.9435 67.7295 78.9829 67.6202 78.9829 67.4858C78.9829 67.3514 74.9435 67.2426 69.9595 67.2426C64.9771 67.2426 60.9365 67.3514 60.9365 67.4858Z" fill="#E1E1E1"/>
<path d="M61.1782 64.3465C61.1782 64.4809 65.1142 64.5902 69.9681 64.5902C74.8241 64.5902 78.7596 64.4809 78.7596 64.3465C78.7596 64.2126 74.8241 64.1033 69.9681 64.1033C65.1142 64.1033 61.1782 64.2126 61.1782 64.3465Z" fill="#E1E1E1"/>
<path d="M113.789 71.2042H124.125V32.5189H113.789V71.2042Z" fill="#ECECEC"/>
<path d="M121.218 71.6999C121.225 71.7036 121.267 71.6327 121.339 71.4897C121.412 71.3484 121.512 71.1324 121.633 70.8455C121.868 70.2705 122.201 69.4023 122.384 68.2225C122.549 67.0631 122.596 65.5068 121.78 63.9665C121.375 63.2108 120.763 62.4919 119.948 61.9452C119.135 61.4108 118.074 61.0668 116.971 61.2417C116.421 61.334 115.879 61.5639 115.431 61.9527C114.982 62.3308 114.652 62.9377 114.69 63.5841C114.718 64.2327 115.091 64.8172 115.574 65.2236C116.059 65.6332 116.68 65.9137 117.337 65.9724C118.648 66.1255 120.007 65.5735 121 64.6385C122.03 63.7185 122.657 62.3431 122.817 60.9212C122.987 59.4903 122.76 58.0097 122.282 56.6055C121.797 55.2012 121.009 53.814 119.748 52.8348C119.121 52.3548 118.342 52.0076 117.516 51.9559C116.693 51.8844 115.808 52.1473 115.195 52.7799C114.888 53.0945 114.683 53.534 114.663 53.99C114.641 54.446 114.79 54.8871 115.019 55.2545C115.483 56.0007 116.275 56.478 117.105 56.678C118.795 57.0417 120.556 56.3729 121.658 55.1532C122.771 53.9292 123.265 52.3265 123.431 50.798C123.585 49.2577 123.47 47.7095 122.986 46.2823C122.513 44.8615 121.578 43.5831 120.316 42.8476C119.083 42.0993 117.521 41.854 116.21 42.4172C115.561 42.6817 114.984 43.2801 114.875 43.9953C114.744 44.6924 114.937 45.406 115.345 45.9441C116.211 47.0359 117.696 47.2183 118.828 46.8657C119.99 46.5079 120.881 45.7255 121.574 44.9153C122.971 43.262 123.574 41.3041 123.635 39.6108C123.695 37.8993 123.223 36.4599 122.68 35.4071C122.128 34.3468 121.502 33.6487 121.055 33.2156C120.827 33.0028 120.647 32.8465 120.518 32.7527C120.39 32.6556 120.323 32.6097 120.318 32.6161C120.251 32.6652 121.446 33.3905 122.511 35.4924C123.017 36.5356 123.447 37.9447 123.363 39.5985C123.279 41.2364 122.669 43.1201 121.312 44.6913C120.64 45.4647 119.781 46.1916 118.72 46.5057C117.696 46.822 116.37 46.6167 115.667 45.7009C115.329 45.254 115.171 44.6385 115.284 44.0748C115.379 43.5004 115.815 43.046 116.381 42.8097C117.529 42.3217 118.952 42.5351 120.085 43.2321C121.245 43.9159 122.101 45.0881 122.547 46.4332C122.999 47.7772 123.109 49.2721 122.957 50.7463C122.796 52.2103 122.319 53.7127 121.3 54.8273C120.313 55.9271 118.694 56.5276 117.214 56.2039C116.491 56.0289 115.813 55.6135 115.432 54.998C115.032 54.3937 115.044 53.6044 115.547 53.1111C116.029 52.6119 116.777 52.3703 117.484 52.4359C118.202 52.4796 118.887 52.7788 119.461 53.2151C120.614 54.102 121.38 55.4193 121.842 56.7553C122.308 58.1073 122.526 59.5223 122.372 60.8679C122.223 62.2108 121.655 63.4679 120.708 64.326C119.793 65.198 118.551 65.7015 117.381 65.5713C116.243 65.4775 115.135 64.6103 115.065 63.5649C115.031 63.0497 115.284 62.5559 115.67 62.222C116.053 61.8823 116.54 61.6673 117.028 61.5809C118.025 61.4124 119.008 61.7116 119.779 62.2049C120.551 62.7084 121.146 63.3847 121.541 64.0977C122.339 65.5415 122.332 67.0583 122.196 68.1969C122.046 69.3569 121.746 70.2279 121.542 70.8103C121.329 71.3916 121.199 71.6913 121.218 71.6999Z" fill="#FAFAFA"/>
<path d="M41.6716 71.2042H56.0348V30.5669H41.6716V71.2042Z" fill="#E1E1E1"/>
<path d="M124.125 71.2042H137.558V35.0261H124.125V71.2042Z" fill="#E1E1E1"/>
<path d="M137.896 53.0684C137.957 53.0023 138.578 53.8615 140.032 54.5868C140.751 54.9468 141.676 55.2498 142.734 55.3362C143.792 55.4172 144.96 55.2546 146.087 54.7532C147.221 54.269 148.261 53.6471 149.313 53.2834C150.354 52.9063 151.406 52.7948 152.241 53.0162C153.076 53.222 153.647 53.6748 153.937 54.045C154.236 54.4178 154.287 54.6871 154.27 54.6908C154.236 54.709 154.135 54.4679 153.818 54.1506C153.51 53.8348 152.957 53.4535 152.177 53.2983C151.404 53.1298 150.433 53.2572 149.441 53.6375C148.44 54.0034 147.42 54.6263 146.247 55.1298C145.076 55.6524 143.807 55.8215 142.701 55.7116C141.589 55.5991 140.629 55.2508 139.898 54.8428C139.161 54.4402 138.648 53.9836 138.332 53.6434C138.013 53.3036 137.88 53.0812 137.896 53.0684Z" fill="#FAFAFA"/>
<path d="M137.594 56.6483C137.655 56.5822 138.276 57.4419 139.73 58.1667C140.449 58.5267 141.374 58.8296 142.432 58.9166C143.49 58.9976 144.658 58.8344 145.785 58.3336C146.919 57.8488 147.959 57.2275 149.011 56.8638C150.052 56.4862 151.104 56.3747 151.939 56.5966C152.773 56.8019 153.345 57.2552 153.635 57.6248C153.934 57.9976 153.984 58.267 153.968 58.2712C153.934 58.2888 153.833 58.0478 153.517 57.7304C153.208 57.4147 152.655 57.0339 151.875 56.8782C151.102 56.7096 150.131 56.8371 149.139 57.2174C148.138 57.5832 147.118 58.2062 145.944 58.7102C144.774 59.2323 143.505 59.4019 142.399 59.2915C141.286 59.1795 140.327 58.8307 139.595 58.4227C138.858 58.02 138.346 57.564 138.03 57.2238C137.711 56.884 137.577 56.6611 137.594 56.6483Z" fill="#FAFAFA"/>
<path d="M137.815 45.0611C137.815 44.9485 141.514 44.8568 146.075 44.8568C150.638 44.8568 154.336 44.9485 154.336 45.0611C154.336 45.1741 150.638 45.2653 146.075 45.2653C141.514 45.2653 137.815 45.1741 137.815 45.0611Z" fill="#FAFAFA"/>
<path d="M131.731 40.8551C131.701 40.9196 131.283 40.5532 130.562 40.757C130.224 40.8556 129.827 41.1004 129.653 41.5106C129.467 41.9122 129.613 42.4551 129.996 42.8226C130.378 43.1906 130.926 43.3159 131.321 43.1148C131.723 42.9255 131.953 42.5191 132.039 42.1772C132.214 41.4498 131.832 41.0455 131.896 41.0135C131.909 40.9991 132.028 41.0631 132.153 41.2636C132.279 41.4604 132.381 41.8082 132.322 42.2327C132.258 42.6434 132.026 43.1655 131.487 43.4524C130.946 43.7548 130.185 43.5852 129.713 43.117C129.227 42.6636 129.028 41.9106 129.309 41.3575C129.575 40.8076 130.088 40.5559 130.496 40.4759C130.918 40.3996 131.269 40.4892 131.47 40.6076C131.676 40.7244 131.745 40.8407 131.731 40.8551Z" fill="#FAFAFA"/>
<path d="M130.862 67.5824C130.749 67.5824 130.658 62.5115 130.658 56.2571C130.658 50 130.749 44.9301 130.862 44.9301C130.975 44.9301 131.066 50 131.066 56.2571C131.066 62.5115 130.975 67.5824 130.862 67.5824Z" fill="#FAFAFA"/>
<path d="M168.134 78.9333H29.1045V70.9973H168.134V78.9333Z" fill="#ECECEC"/>
<path d="M168.134 78.9333H155.996V70.9973H168.134V78.9333Z" fill="#E1E1E1"/>
</g>
<path d="M329.665 57.7212L328.342 55.5409C317.188 37.1612 297.023 26.0812 275.761 27.4257C273.029 27.5985 270.307 27.9687 267.622 28.5436C248.291 32.6812 231.472 47.2993 224.499 66.0209C220.399 77.0316 219.254 89.7089 211.473 98.4481C201.346 109.822 184.153 110.179 169.038 109.708C153.922 109.237 136.719 109.639 126.641 121.058C120.33 128.209 118.324 138.379 118.833 147.957C120.18 173.313 137.849 195.986 160.319 207.255C182.79 218.524 209.246 219.533 233.838 214.576C268.289 207.632 301.051 188.56 320.744 159.103C340.437 129.646 345.421 89.5143 329.665 57.7212Z" fill="#F5F5F5"/>
<path d="M86.5549 62.1429C86.5549 67.7237 82.0306 72.2479 76.4498 72.2479C70.8685 72.2479 66.3442 67.7237 66.3442 62.1429C66.3442 56.5621 70.8685 52.0373 76.4498 52.0373C82.0306 52.0373 86.5549 56.5621 86.5549 62.1429Z" fill="#F5F5F5"/>
<path d="M175.126 70.3902L174.448 125.01C174.333 134.298 176.061 147.966 190.755 147.479C203.471 146.094 206.845 134.056 206.943 125.388C206.99 121.277 207.038 117.848 207.071 117.425C207.071 117.425 220.991 116.29 222.166 102.541C222.734 95.8963 222.789 82.1155 222.694 69.6478C222.594 56.2574 212.21 45.1966 198.855 44.2217L197.527 44.1246C183.148 43.915 174.938 56.0105 175.126 70.3902Z" fill="#E9EDF1"/>
<path d="M207.071 117.426C207.071 117.426 198.36 117.301 189.54 110.82C189.54 110.82 193.177 121.191 206.999 120.954L207.071 117.426Z" fill="#73A1BD"/>
<path d="M199.188 75.2822C198.915 75.5606 197.327 74.2822 195.023 74.2203C192.723 74.1243 191 75.2891 190.758 74.9926C190.639 74.8603 190.923 74.352 191.674 73.8251C192.414 73.2992 193.664 72.8043 195.099 72.8534C196.533 72.904 197.725 73.4806 198.404 74.0555C199.097 74.6336 199.322 75.1584 199.188 75.2822Z" fill="#1A2E35"/>
<path d="M198.702 80.047C198.665 81.0316 197.801 81.8113 196.773 81.7916C195.746 81.7718 194.942 80.9601 194.979 79.9756C195.016 78.9916 195.88 78.2102 196.907 78.2294C197.935 78.2492 198.739 79.063 198.702 80.047Z" fill="#1A2E35"/>
<path d="M204.958 91.3067C204.957 91.1856 206.288 91.0544 208.438 90.9381C208.983 90.9216 209.501 90.8517 209.619 90.4896C209.775 90.1088 209.592 89.5104 209.375 88.8624C208.963 87.5189 208.532 86.1104 208.079 84.6336C206.288 78.6171 205.035 73.6859 205.277 73.616C205.521 73.5456 207.169 78.3659 208.959 84.3829C209.387 85.8651 209.797 87.2789 210.187 88.6309C210.346 89.2597 210.647 89.9819 210.312 90.7712C210.137 91.1637 209.72 91.4283 209.367 91.4955C209.013 91.576 208.708 91.56 208.44 91.5563C206.288 91.5152 204.957 91.4277 204.958 91.3067Z" fill="#1A2E35"/>
<path d="M198.208 66.6212C197.985 67.1322 196.141 66.7476 193.932 66.8607C191.722 66.9274 189.909 67.4612 189.653 66.97C189.54 66.7348 189.884 66.2644 190.634 65.8084C191.378 65.3535 192.542 64.954 193.867 64.8991C195.192 64.8463 196.379 65.1498 197.152 65.5434C197.93 65.9364 198.305 66.378 198.208 66.6212Z" fill="#1A2E35"/>
<path d="M220.086 70.89C219.844 71.3065 218.046 70.8441 215.868 70.7769C213.69 70.6702 211.882 70.9886 211.652 70.5534C211.551 70.3454 211.91 69.9721 212.669 69.6414C213.422 69.3108 214.586 69.058 215.892 69.1092C217.197 69.1625 218.352 69.5076 219.095 69.898C219.844 70.2889 220.192 70.6905 220.086 70.89Z" fill="#1A2E35"/>
<path d="M175.506 80.6621C175.279 80.5437 166.255 77.1747 165.868 86.6056C165.482 96.036 175.029 94.4787 175.057 94.2088C175.084 93.9395 175.506 80.6621 175.506 80.6621Z" fill="#E9EDF1"/>
<path d="M172.323 90.5182C172.283 90.4862 172.154 90.6264 171.872 90.7422C171.595 90.8552 171.127 90.9214 170.642 90.7176C169.661 90.3107 168.887 88.6947 168.911 86.9934C168.922 86.1342 169.136 85.324 169.467 84.66C169.784 83.9816 170.249 83.5182 170.755 83.4494C171.258 83.3544 171.601 83.6696 171.706 83.9395C171.821 84.2083 171.754 84.3939 171.803 84.4126C171.828 84.4371 172.012 84.2627 171.952 83.8702C171.921 83.6814 171.819 83.4542 171.605 83.2638C171.386 83.0707 171.057 82.963 170.706 82.9864C169.977 83.0072 169.295 83.6494 168.93 84.3784C168.525 85.1096 168.266 86.019 168.253 86.9838C168.235 88.8867 169.136 90.7043 170.483 91.1544C171.139 91.3544 171.7 91.1774 171.995 90.9662C172.297 90.7454 172.355 90.5363 172.323 90.5182Z" fill="#73A1BD"/>
<path d="M202.734 97.8364C202.836 97.598 200.989 97.0449 199.69 95.3116C199.041 94.4582 198.666 93.5281 198.385 92.8486C198.11 92.1644 197.901 91.7345 197.8 91.766C197.704 91.7958 197.727 92.2593 197.879 93.0044C198.037 93.7404 198.358 94.7937 199.093 95.7628C199.817 96.7414 200.788 97.326 201.501 97.607C202.222 97.8988 202.709 97.9169 202.734 97.8364Z" fill="#1A2E35"/>
<path d="M240.955 57.3051C240.805 56.7515 240.403 56.296 239.909 56.0048C238.833 55.3691 237.592 55.4534 236.394 55.4342C232.744 55.376 229.123 54.2619 226.054 52.2912C224.616 50.2182 222.997 48.2704 221.241 46.4598C217.074 42.1622 213.644 39.2374 210.097 37.8096C205.509 35.9622 197.835 35.2139 193.051 36.4688C188.267 37.7243 183.971 41.6054 183.306 46.5067C180.623 44.2384 176.595 44.2576 173.327 45.5718L173.245 45.536C169.606 46.8326 167.538 50.6774 166.465 54.3888C165.391 58.0998 164.933 62.0683 162.968 65.3947C162.557 66.0902 162.068 66.9238 162.427 67.6475C162.705 68.207 163.416 68.4379 164.034 68.3472C164.652 68.256 165.2 67.9147 165.728 67.5803C165.322 68.552 164.916 69.5243 164.511 70.4955C165.827 70.7254 167.191 70.6192 168.469 70.2315C169.242 73.7024 170.164 77.6656 171.058 80.0176C172.579 80.0139 173.971 80.1222 174.909 80.9654C176.184 82.1115 176.754 84.2678 178.872 83.4496C179.95 83.0326 180.933 80.7712 181.295 79.6731C183.688 72.3851 184.483 64.5792 183.618 56.9579C185.125 55.351 186.944 54.0384 188.944 53.1136L188.781 53.2603C192.624 51.9259 196.971 50.6128 200.617 52.4166C203.445 53.816 205.107 56.7504 207.221 59.0928C211.229 63.5307 216.634 65.9424 222.609 66.1995C222.811 70.071 222.486 75.5435 222.689 79.415L225.946 73.2128L225.949 73.2438C226.216 72.7904 226.436 72.3323 226.65 71.8736L226.723 71.7344L226.722 71.7174C227.061 70.9808 227.384 70.2432 227.811 69.5147C227.824 69.5259 227.836 69.5366 227.849 69.5478C229.946 71.3984 233.037 68.5686 231.383 66.3131C231.055 65.8656 230.663 65.4667 230.213 65.1376C231.172 66.0379 232.602 66.4694 233.859 66.0827C235.116 65.696 236.091 64.4246 235.982 63.1136C235.907 62.2192 235.268 61.4192 234.46 61.0656C236.155 61.1958 237.888 60.8272 239.365 59.9846C240.333 59.432 241.283 58.5232 240.955 57.3051Z" fill="#1A2E35"/>
<path d="M187.633 48.0861C187.66 48.1213 187.057 48.4498 186.253 49.3474C185.457 50.2418 184.564 51.7976 184.142 53.9144C183.926 54.9666 183.79 56.1437 183.79 57.4098C183.785 58.6765 183.887 60.0328 183.984 61.4626C184.077 62.892 184.179 64.4018 184.087 65.973C184.041 66.757 183.947 67.5549 183.777 68.3522C183.604 69.1357 183.398 69.9864 182.806 70.6605C182.335 71.2093 181.548 71.453 180.866 71.3128C180.178 71.1912 179.566 70.8253 179.119 70.3261C178.234 69.2936 178.013 67.9832 177.793 66.829L178.082 66.8637C177.611 67.9016 177.126 68.9266 176.409 69.7453C175.703 70.5688 174.726 71.1138 173.733 71.2024C173.238 71.2466 172.74 71.1677 172.315 70.9538C171.882 70.7432 171.566 70.3837 171.351 70.005C171.146 69.6189 171.038 69.1949 171.059 68.7858C171.083 68.3773 171.242 67.9901 171.501 67.716L171.647 67.8461C170.586 69.0541 169.466 69.7032 168.692 70.0632C168.301 70.2429 167.988 70.3506 167.777 70.4184C167.563 70.4818 167.451 70.5085 167.449 70.5C167.445 70.4904 167.553 70.4472 167.758 70.3677C167.963 70.284 168.267 70.1608 168.646 69.9682C169.398 69.5842 170.482 68.9181 171.498 67.7192L171.644 67.8493C171.181 68.3394 171.155 69.2008 171.553 69.893C171.754 70.2338 172.043 70.5538 172.424 70.7325C172.803 70.9186 173.257 70.988 173.709 70.9421C174.621 70.8514 175.532 70.3405 176.193 69.5576C176.869 68.7752 177.339 67.7773 177.804 66.7378L178.002 66.2968L178.093 66.773C178.313 67.9261 178.548 69.1837 179.355 70.1144C179.756 70.5618 180.316 70.8925 180.918 70.997C181.521 71.1133 182.157 70.9149 182.568 70.444C183.085 69.861 183.297 69.0557 183.465 68.285C183.631 67.5074 183.725 66.7256 183.773 65.9538C183.867 64.4093 183.773 62.9096 183.688 61.4813C183.599 60.0525 183.507 58.6898 183.524 57.4072C183.535 56.1245 183.686 54.932 183.92 53.8658C184.377 51.7218 185.322 50.1469 186.161 49.2637C187.007 48.3762 187.633 48.0861 187.633 48.0861Z" fill="#375A64"/>
<path d="M230.183 61.4689C230.187 61.4731 230.15 61.5051 230.073 61.5627C229.98 61.631 229.867 61.7131 229.73 61.8134C229.579 61.9259 229.388 62.0571 229.147 62.1873C228.909 62.3233 228.639 62.4891 228.31 62.6273C227.033 63.2347 224.985 63.8374 222.423 63.6865C219.886 63.5441 216.841 62.6454 214.122 60.6214C211.374 58.6454 208.963 55.735 206.99 52.4017C205.99 50.7361 205.174 49.0289 204.276 47.4518C203.383 45.8742 202.397 44.4155 201.203 43.2646C200.022 42.1073 198.651 41.2518 197.239 40.8593C196.535 40.6497 195.826 40.6027 195.149 40.6187C194.471 40.6545 193.828 40.7915 193.236 40.9862C192.05 41.3835 191.094 42.039 190.368 42.7126C189.639 43.3926 189.151 44.1105 188.816 44.7259C188.19 45.9905 188.156 46.8022 188.106 46.7883C188.1 46.7878 188.104 46.7387 188.117 46.6443C188.135 46.5302 188.156 46.3915 188.182 46.223C188.249 45.8545 188.408 45.3206 188.705 44.6694C189.028 44.0342 189.511 43.2902 190.244 42.5819C190.974 41.8806 191.945 41.1947 193.162 40.7707C193.77 40.5638 194.433 40.4145 195.136 40.3707C195.837 40.3467 196.581 40.3915 197.31 40.6022C198.778 40.9979 200.195 41.8737 201.409 43.0518C202.638 44.2246 203.646 45.7089 204.55 47.2961C205.46 48.8838 206.275 50.5873 207.267 52.2374C209.224 55.5451 211.601 58.4235 214.296 60.3814C216.965 62.3873 219.938 63.2881 222.437 63.4598C224.956 63.6369 226.98 63.0785 228.259 62.5131C229.547 61.9393 230.158 61.4294 230.183 61.4689Z" fill="#375A64"/>
<path d="M231.435 55.4252C231.447 55.4444 231.271 55.5649 230.942 55.7687C230.616 55.9783 230.117 56.2359 229.481 56.5105C228.847 56.7905 228.06 57.0513 227.169 57.2695C226.273 57.4721 225.271 57.622 224.211 57.662C223.151 57.6903 222.14 57.6044 221.234 57.4599C220.331 57.2988 219.529 57.0887 218.878 56.8497C218.225 56.6167 217.711 56.3916 217.373 56.2033C217.031 56.0215 216.848 55.9116 216.858 55.8919C216.885 55.8375 217.645 56.2284 218.949 56.6343C219.599 56.8417 220.392 57.0252 221.281 57.1671C222.172 57.2929 223.162 57.3681 224.201 57.3404C225.24 57.3015 226.222 57.1633 227.104 56.9809C227.981 56.782 228.761 56.5484 229.396 56.2993C230.672 55.8113 231.405 55.3724 231.435 55.4252Z" fill="#375A64"/>
<path d="M220.189 76.1498C219.915 76.4282 218.328 75.1498 216.023 75.088C213.724 74.992 212 76.1562 211.758 75.8602C211.639 75.728 211.924 75.2197 212.674 74.6928C213.414 74.1669 214.665 73.672 216.099 73.721C217.533 73.7717 218.726 74.3482 219.404 74.9232C220.097 75.5013 220.323 76.0261 220.189 76.1498Z" fill="#1A2E35"/>
<path d="M217.84 80.7163C217.804 81.7003 216.94 82.4805 215.911 82.4608C214.885 82.4411 214.08 81.6288 214.118 80.6448C214.154 79.6608 215.018 78.8795 216.045 78.8987C217.073 78.9184 217.877 79.7323 217.84 80.7163Z" fill="#1A2E35"/>
<path d="M303.764 131.003C303.764 127.007 299.947 127.007 299.947 127.007C298.492 125.096 296.856 125.792 296.856 125.792L290.674 129.96C289.765 131.524 283.766 137.43 283.766 137.43C282.13 136.214 282.13 133.782 280.168 130.829C278.208 127.876 273.766 128.224 273.766 128.224C273.766 128.224 277.22 136.04 277.584 140.905C277.948 145.769 274.929 159.336 274.929 159.336L292.405 164.248C292.405 164.248 293.508 156.804 295.466 156.204C297.823 155.481 299.134 152.003 299.134 152.003C301.683 146.842 306.855 139.341 307.582 135.52C308.309 131.698 303.764 131.003 303.764 131.003Z" fill="#E9EDF1"/>
<path d="M173.805 122.363C184.937 129.358 196.155 131.99 207.516 127.46L224.595 131.822L241.398 244.085L142.878 244.941L147.732 218.866L159.946 125.183L173.805 122.363Z" fill="#375A64"/>
<path d="M224.595 131.822C224.595 131.822 237.879 137.338 242.949 147C248.018 156.663 256.167 183.783 256.167 183.783L271.176 156.219L299.033 163.34C299.033 163.34 278.298 220.533 273.092 225.741C267.393 231.441 251.863 237.189 244.258 232.753C236.653 228.317 235.106 211.479 235.106 211.479L224.595 131.822Z" fill="#375A64"/>
<path d="M225.51 178.777C225.433 178.777 225.372 173.791 225.372 167.641C225.372 161.49 225.433 156.504 225.51 156.504C225.588 156.504 225.649 161.49 225.649 167.641C225.649 173.791 225.588 178.777 225.51 178.777Z" fill="#1A2E35"/>
<path d="M230.711 138.237C230.748 138.253 230.48 138.949 230.063 140.076C229.644 141.203 229.089 142.768 228.546 144.519C228.004 146.271 227.579 147.877 227.287 149.043C226.994 150.209 226.823 150.934 226.783 150.926C226.764 150.922 226.783 150.737 226.834 150.403C226.884 150.07 226.973 149.589 227.096 148.999C227.339 147.818 227.737 146.197 228.281 144.437C228.826 142.678 229.414 141.117 229.88 140.004C230.113 139.448 230.311 139.002 230.458 138.698C230.604 138.394 230.693 138.229 230.711 138.237Z" fill="#1A2E35"/>
<path d="M158.144 167.223L161.226 124.923C161.226 124.923 138.036 127.074 130.363 143.434C123.896 157.22 106.046 198.7 104.135 204.375C98.5287 221.026 107.287 243.918 143.395 242.592L147.511 219.955L158.144 167.223Z" fill="#375A64"/>
<path d="M132.178 224.674C132.169 224.669 132.235 224.53 132.367 224.268C132.513 223.986 132.709 223.606 132.956 223.13C133.491 222.123 134.244 220.707 135.167 218.968C135.403 218.529 135.649 218.069 135.907 217.591C136.169 217.117 136.47 216.601 136.967 216.228C137.463 215.856 138.113 215.703 138.75 215.715C139.392 215.723 140.033 215.861 140.672 216.027C141.953 216.365 143.264 216.841 144.553 217.494C145.196 217.822 145.831 218.202 146.416 218.682L146.631 218.868C146.715 218.943 146.783 219.061 146.813 219.154C146.882 219.352 146.912 219.545 146.93 219.737C146.969 220.121 146.965 220.502 146.956 220.885C146.899 222.415 146.709 223.888 146.519 225.309C146.323 226.73 146.106 228.094 145.889 229.393C145.453 231.989 145.016 234.318 144.642 236.273C144.263 238.205 143.955 239.779 143.735 240.898C143.632 241.423 143.549 241.842 143.488 242.154C143.431 242.441 143.405 242.593 143.395 242.592C143.385 242.591 143.393 242.436 143.433 242.146C143.471 241.854 143.537 241.427 143.629 240.878C143.828 239.755 144.106 238.177 144.448 236.237C144.798 234.279 145.214 231.947 145.636 229.351C145.846 228.053 146.057 226.689 146.249 225.273C146.435 223.856 146.622 222.384 146.678 220.877C146.687 220.502 146.691 220.126 146.654 219.765C146.638 219.584 146.607 219.405 146.553 219.252C146.524 219.169 146.496 219.122 146.443 219.071L146.239 218.893C145.68 218.434 145.059 218.06 144.429 217.736C143.165 217.091 141.867 216.614 140.607 216.274C139.977 216.107 139.354 215.971 138.747 215.959C138.143 215.945 137.554 216.082 137.104 216.414C136.653 216.745 136.357 217.229 136.094 217.695C135.832 218.17 135.58 218.626 135.34 219.062C134.383 220.783 133.605 222.185 133.051 223.181C132.785 223.647 132.574 224.019 132.416 224.295C132.268 224.548 132.187 224.679 132.178 224.674Z" fill="#1A2E35"/>
<path d="M115.41 204.579C115.41 204.57 115.504 204.568 115.682 204.571C115.892 204.579 116.149 204.589 116.461 204.601C117.136 204.634 118.113 204.691 119.318 204.803C120.523 204.915 121.958 205.086 123.53 205.416C125.099 205.743 126.806 206.25 128.483 207.057C130.151 207.872 131.636 208.86 132.84 209.932C134.029 211.017 134.949 212.173 135.485 213.275C136.026 214.371 136.25 215.354 136.287 216.033C136.337 216.37 136.297 216.637 136.302 216.815C136.297 216.994 136.289 217.086 136.28 217.086C136.249 217.086 136.26 216.709 136.179 216.045C136.11 215.379 135.862 214.425 135.31 213.365C134.765 212.299 133.849 211.18 132.67 210.123C131.476 209.08 130.009 208.112 128.361 207.307C126.711 206.513 125.029 206.004 123.476 205.666C121.922 205.325 120.497 205.135 119.298 204.998C118.099 204.862 117.125 204.774 116.453 204.708C116.143 204.676 115.888 204.649 115.678 204.627C115.501 204.605 115.409 204.589 115.41 204.579Z" fill="#1A2E35"/>
<path d="M140.222 202.444C140.256 202.457 140.043 203.097 139.645 204.108C139.248 205.121 138.656 206.502 137.977 208.013C137.314 209.487 136.715 210.819 136.237 211.882C135.793 212.873 135.516 213.485 135.479 213.471C135.445 213.457 135.658 212.818 136.056 211.807C136.453 210.794 137.044 209.412 137.723 207.9C138.386 206.428 138.985 205.096 139.464 204.033C139.907 203.042 140.184 202.429 140.222 202.444Z" fill="#1A2E35"/>
<path d="M153.055 169.152C152.978 169.152 152.917 166.471 152.917 163.163C152.917 159.856 152.978 157.175 153.055 157.175C153.132 157.175 153.194 159.856 153.194 163.163C153.194 166.471 153.132 169.152 153.055 169.152Z" fill="#1A2E35"/>
<mask id="mask1_10263_126026" style="mask-type:luminance" maskUnits="userSpaceOnUse" x="124" y="217" width="13" height="17">
<path d="M124.234 217.086H136.28V233.351H124.234V217.086Z" fill="white"/>
</mask>
<g mask="url(#mask1_10263_126026)">
<g opacity="0.300003">
<path d="M136.28 217.086C130.179 219.214 126.056 224.749 124.39 230.992C124.216 231.646 124.099 232.42 124.537 232.937C124.987 233.468 125.855 233.453 126.452 233.093C127.049 232.733 127.44 232.12 127.81 231.529C130.749 226.826 133.618 222.469 136.28 217.086Z" fill="black"/>
</g>
</g>
<mask id="mask2_10263_126026" style="mask-type:luminance" maskUnits="userSpaceOnUse" x="109" y="202" width="27" height="12">
<path d="M109.457 202.24H135.479V213.471H109.457V202.24Z" fill="white"/>
</mask>
<g mask="url(#mask2_10263_126026)">
<g opacity="0.300003">
<path d="M128.713 205.018C125.523 203.245 121.854 202.484 118.212 202.264C116.785 202.177 115.366 202.342 113.967 202.637C112.063 203.037 109.874 203.999 109.457 205.366C113.836 203.995 120.281 204.898 124.763 205.878C129.285 206.866 132.958 209.429 135.479 213.471C134.399 210.062 131.842 206.757 128.713 205.018Z" fill="black"/>
</g>
</g>
<path d="M149.644 151.139C149.625 151.142 149.55 150.904 149.431 150.471C149.317 150.037 149.132 149.413 148.879 148.652C148.379 147.13 147.54 145.07 146.302 142.96C145.058 140.853 143.666 139.119 142.577 137.942C142.034 137.352 141.58 136.887 141.256 136.577C140.935 136.262 140.763 136.082 140.775 136.067C140.788 136.053 140.984 136.206 141.329 136.498C141.677 136.784 142.155 137.231 142.72 137.807C143.853 138.957 145.285 140.691 146.541 142.819C147.791 144.95 148.611 147.045 149.066 148.593C149.296 149.367 149.454 150.002 149.536 150.445C149.623 150.888 149.662 151.134 149.644 151.139Z" fill="#1A2E35"/>
<path d="M158.16 244.924L132.32 182.58C131.141 179.735 132.62 177.429 135.624 177.429H140.823C142.944 177.429 144.39 176.261 144.527 174.437L144.699 172.144C144.836 170.32 146.284 169.152 148.408 169.152H173.111C175.037 169.152 177.212 170.113 178.831 171.682L180.837 173.625C182.455 175.193 184.628 176.156 186.552 176.156H218.015C221.02 176.156 224.383 178.462 225.529 181.307L251.145 244.924H158.16Z" fill="#5089AC"/>
<mask id="mask3_10263_126026" style="mask-type:luminance" maskUnits="userSpaceOnUse" x="131" y="169" width="121" height="76">
<path d="M131.915 169.151H251.146V244.924H131.915V169.151Z" fill="white"/>
</mask>
<g mask="url(#mask3_10263_126026)">
<g opacity="0.300003">
<path d="M158.16 244.924L132.32 182.58C131.141 179.735 132.621 177.429 135.624 177.429H140.823C142.945 177.429 144.391 176.261 144.527 174.437L144.699 172.144C144.837 170.32 146.285 169.152 148.408 169.152H173.112C175.037 169.152 177.212 170.114 178.832 171.683L180.837 173.625C182.455 175.194 184.629 176.156 186.552 176.156H218.015C221.02 176.156 224.384 178.462 225.529 181.307L251.145 244.924H158.16Z" fill="black"/>
</g>
</g>
<path d="M153.89 223.751L144.144 186.072C143.503 183.59 145.128 181.101 147.389 181.101H223.777C225.287 181.101 226.614 182.247 227.03 183.907L241.216 240.621C241.839 243.112 240.843 244.606 238.579 244.577L161.722 244.6C160.233 244.582 158.929 243.451 158.511 241.817L153.89 223.751Z" fill="#E1E1E1"/>
<path d="M159.169 243.219L155.017 183.881C154.87 181.777 156.537 179.988 158.647 179.988H237.794V243.219H159.169Z" fill="#ECECEC"/>
<path d="M158.283 244.577L167.699 183.405C168.134 181.412 169.927 179.988 172.003 179.988H252.068C255.232 179.988 257.362 183.165 256.111 186.018L238.822 241.999L158.283 244.577Z" fill="#FAFAFA"/>
<path d="M158.161 244.896L177.579 187.605C178.388 185.218 180.552 183.622 182.979 183.622H265.52C268.181 183.622 270.056 186.344 269.207 188.974L251.146 244.924L158.161 244.896Z" fill="#5089AC"/>
<mask id="mask4_10263_126026" style="mask-type:luminance" maskUnits="userSpaceOnUse" x="159" y="210" width="41" height="35">
<path d="M159.844 210.685H199.379V244.924H159.844V210.685Z" fill="white"/>
</mask>
<g mask="url(#mask4_10263_126026)">
<g opacity="0.300003">
<path d="M198.069 235.304C198.069 235.304 194.952 235.447 193.515 235.545C186.674 236.012 179.723 234.779 173.46 231.987C171.518 231.122 169.463 229.9 168.876 227.857C168.218 225.568 169.7 223.186 171.507 221.635C173.314 220.084 175.511 218.98 177.08 217.188C178.649 215.397 179.392 212.497 177.846 210.686L177.419 210.999C176.302 213.827 173.193 215.192 170.618 216.811C165.836 219.816 162.189 224.583 160.539 229.984C159.632 232.95 159.391 236.41 161.189 238.938C162.465 240.73 164.553 241.749 166.616 242.514C172.861 244.829 179.535 244.916 186.195 244.924C188.299 244.926 194.757 244.838 194.757 244.838C196.788 244.285 197.457 243.228 198.68 241.516C199.802 239.942 199.557 236.538 198.069 235.304Z" fill="black"/>
</g>
</g>
<path d="M198.069 235.304L176.541 232.068L168.182 227.258C167.081 226.625 166.328 225.491 166.261 224.223C166.26 224.199 166.258 224.175 166.257 224.151C166.192 222.566 167.161 221.124 168.623 220.508C171.275 219.391 175.476 217.904 177.267 214.766C179.841 210.256 177.267 209.32 177.267 209.32L159.289 216.507L146.564 225.168L144.002 239.61L161.759 245.409C161.759 245.409 181.545 246.525 187.005 245.912C192.465 245.299 192.465 242.757 192.465 242.757C193.478 242.44 195.528 240.64 195.527 238.962C198.177 236.477 198.069 235.304 198.069 235.304Z" fill="#E9EDF1"/>
<path d="M170.534 241.52C170.541 241.496 170.856 241.557 171.421 241.69C171.983 241.826 172.802 242.007 173.815 242.21C175.842 242.617 178.672 243.039 181.823 243.165C184.975 243.285 187.831 243.085 189.883 242.836C190.909 242.714 191.739 242.597 192.311 242.505C192.883 242.417 193.203 242.38 193.208 242.405C193.213 242.429 192.903 242.514 192.337 242.645C191.772 242.78 190.945 242.936 189.917 243.093C187.863 243.408 184.986 243.652 181.809 243.532C178.634 243.404 175.784 242.937 173.761 242.463C172.749 242.227 171.936 242.007 171.383 241.827C170.829 241.653 170.527 241.544 170.534 241.52Z" fill="#73A1BD"/>
<path d="M172.499 238.192C172.507 238.168 172.827 238.23 173.4 238.363C173.971 238.502 174.802 238.683 175.833 238.881C177.892 239.282 180.77 239.679 183.97 239.781C187.171 239.874 190.07 239.661 192.153 239.405C193.195 239.279 194.037 239.159 194.617 239.066C195.199 238.976 195.522 238.938 195.528 238.962C195.533 238.987 195.218 239.072 194.644 239.206C194.07 239.343 193.231 239.502 192.187 239.662C190.103 239.984 187.185 240.242 183.959 240.146C180.735 240.045 177.838 239.603 175.78 239.135C174.751 238.903 173.924 238.683 173.363 238.502C172.8 238.325 172.492 238.216 172.499 238.192Z" fill="#73A1BD"/>
<path d="M299.469 158.564L261.218 166.118C258.575 166.641 256.009 164.921 255.487 162.278L245.03 109.334C244.508 106.691 246.228 104.125 248.871 103.603L273.129 98.8116L295.729 114.457L303.309 152.832C303.831 155.476 302.112 158.041 299.469 158.564Z" fill="#ECECEC"/>
<path d="M273.128 98.8119L276.072 113.712C276.557 116.17 278.943 117.77 281.401 117.285L295.729 114.457L273.128 98.8119Z" fill="#F5F5F5"/>
<path d="M276.526 114.981C276.526 114.981 277.051 118.633 281.4 119.008C281.563 119.022 281.729 119.024 281.893 119.021C283.829 118.986 296.577 118.744 296.521 118.461C296.461 118.155 295.73 114.457 295.73 114.457L281.403 117.287C281.403 117.287 277.801 117.871 276.526 114.981Z" fill="#E1E1E1"/>
<path d="M299.469 158.564C299.469 158.564 299.537 158.54 299.675 158.503C299.813 158.47 300.017 158.412 300.277 158.307C300.791 158.103 301.555 157.704 302.252 156.867C302.924 156.044 303.528 154.718 303.303 153.147C303.023 151.597 302.642 149.813 302.249 147.812C300.655 139.8 298.373 128.333 295.616 114.48L295.664 114.552C288.823 109.824 281.195 104.55 273.054 98.921L273.155 98.9423C268.657 99.8319 263.975 100.758 259.158 101.711C256.749 102.187 254.306 102.67 251.836 103.159C251.218 103.28 250.599 103.403 249.978 103.526C249.358 103.658 248.723 103.74 248.15 103.957C246.99 104.386 246.014 105.298 245.502 106.437C245.144 107.227 245.003 108.117 245.118 108.973C245.253 109.831 245.452 110.711 245.614 111.574C245.956 113.308 246.296 115.029 246.633 116.739C247.308 120.157 247.972 123.526 248.625 126.836C249.93 133.455 251.189 139.841 252.388 145.924C252.986 148.965 253.569 151.931 254.137 154.813C254.421 156.254 254.7 157.674 254.975 159.071C255.112 159.771 255.249 160.464 255.384 161.152C255.531 161.839 255.611 162.533 255.871 163.152C256.379 164.403 257.437 165.375 258.659 165.813C259.27 166.035 259.92 166.127 260.556 166.088C261.187 166.044 261.823 165.879 262.451 165.766C264.962 165.273 267.372 164.8 269.672 164.349C278.872 162.551 286.317 161.095 291.469 160.088C294.039 159.592 296.036 159.207 297.398 158.944C298.072 158.818 298.587 158.72 298.941 158.653C299.289 158.589 299.469 158.564 299.469 158.564C299.469 158.564 299.293 158.608 298.946 158.682C298.593 158.754 298.08 158.861 297.409 158.999C296.049 159.274 294.056 159.676 291.49 160.195C286.342 161.222 278.902 162.707 269.711 164.541C267.412 164.998 265.003 165.477 262.492 165.976C261.862 166.09 261.241 166.256 260.569 166.307C259.903 166.349 259.223 166.253 258.583 166.022C257.303 165.566 256.193 164.552 255.658 163.239C255.382 162.58 255.302 161.876 255.154 161.197C255.018 160.509 254.88 159.816 254.742 159.117C254.464 157.72 254.183 156.301 253.898 154.861C253.326 151.979 252.739 149.014 252.136 145.974C250.932 139.891 249.669 133.507 248.359 126.888C247.704 123.579 247.038 120.211 246.363 116.792C246.024 115.083 245.684 113.362 245.342 111.628C245.177 110.756 244.983 109.905 244.843 109.007C244.721 108.102 244.87 107.158 245.249 106.323C245.791 105.117 246.824 104.151 248.053 103.698C248.673 103.464 249.309 103.386 249.924 103.254C250.545 103.131 251.165 103.008 251.782 102.887C254.253 102.399 256.696 101.917 259.104 101.442C263.923 100.492 268.606 99.5679 273.103 98.681L273.159 98.6703L273.205 98.7023C281.34 104.341 288.961 109.624 295.796 114.362L295.835 114.389L295.844 114.435C298.561 128.296 300.809 139.77 302.381 147.786C302.765 149.791 303.134 151.569 303.405 153.133C303.624 154.74 302.997 156.085 302.305 156.912C301.59 157.753 300.813 158.146 300.29 158.34C300.026 158.44 299.82 158.493 299.679 158.52C299.54 158.552 299.469 158.564 299.469 158.564Z" fill="#1A2E35"/>
<path d="M295.73 114.457C295.732 114.467 295.607 114.501 295.367 114.557C295.1 114.617 294.752 114.694 294.317 114.791C293.371 114.989 292.056 115.264 290.445 115.601C288.798 115.934 286.852 116.329 284.694 116.765C283.609 116.98 282.472 117.205 281.292 117.438C280.074 117.655 278.72 117.344 277.679 116.539C277.157 116.14 276.726 115.636 276.42 115.075C276.103 114.521 275.951 113.88 275.852 113.298C275.622 112.119 275.4 110.981 275.188 109.897C274.772 107.735 274.397 105.784 274.081 104.134C273.78 102.516 273.534 101.195 273.357 100.245C273.282 99.807 273.221 99.455 273.174 99.1852C273.136 98.942 273.12 98.8134 273.129 98.8118C273.139 98.8102 273.173 98.935 273.229 99.174C273.289 99.4417 273.366 99.7905 273.464 100.224C273.661 101.17 273.936 102.485 274.273 104.097C274.607 105.743 275.002 107.69 275.439 109.847C275.656 110.931 275.883 112.067 276.118 113.245C276.224 113.844 276.362 114.411 276.662 114.942C276.952 115.47 277.357 115.944 277.848 116.318C278.829 117.076 280.099 117.37 281.247 117.17C282.425 116.943 283.561 116.724 284.645 116.514C286.806 116.099 288.757 115.724 290.407 115.408C292.026 115.107 293.346 114.861 294.296 114.685C294.734 114.61 295.086 114.549 295.357 114.502C295.6 114.464 295.728 114.448 295.73 114.457Z" fill="#1A2E35"/>
<path d="M275.032 112.251C275.046 112.326 270.541 113.279 264.969 114.38C259.395 115.481 254.866 116.312 254.851 116.237C254.836 116.162 259.341 115.208 264.915 114.107C270.487 113.007 275.017 112.175 275.032 112.251Z" fill="#1A2E35"/>
<path d="M286.075 117.793C286.09 117.868 279.441 119.245 271.225 120.867C263.007 122.491 256.335 123.745 256.32 123.67C256.305 123.594 262.953 122.218 271.171 120.595C279.387 118.972 286.061 117.717 286.075 117.793Z" fill="#1A2E35"/>
<path d="M287.543 125.226C287.558 125.301 280.908 126.678 272.692 128.3C264.474 129.924 257.802 131.178 257.787 131.103C257.772 131.027 264.421 129.651 272.639 128.028C280.854 126.405 287.528 125.15 287.543 125.226Z" fill="#1A2E35"/>
<path d="M259.256 138.536C259.241 138.46 265.89 137.084 274.106 135.461C282.325 133.838 288.997 132.584 289.012 132.659C289.026 132.734 282.378 134.11 274.16 135.733C265.945 137.356 259.271 138.611 259.256 138.536Z" fill="#1A2E35"/>
<path d="M290.479 140.092C290.493 140.167 283.844 141.544 275.628 143.166C267.41 144.79 260.738 146.044 260.723 145.969C260.708 145.893 267.356 144.517 275.575 142.894C283.79 141.271 290.464 140.016 290.479 140.092Z" fill="#1A2E35"/>
<path d="M291.947 147.525C291.962 147.6 285.313 148.977 277.097 150.599C268.878 152.223 262.206 153.477 262.191 153.402C262.176 153.327 268.825 151.95 277.043 150.327C285.259 148.704 291.933 147.449 291.947 147.525Z" fill="#1A2E35"/>
<path d="M293.451 119.165C293.451 119.165 296.276 115.589 298.452 117.589C300.627 119.589 299.999 120.618 297.931 123.779C297.931 123.779 302.549 123.537 301.068 128.28C301.068 128.28 305.669 127.771 305.227 131.653C305.227 131.653 308.702 135.053 306.894 137.244C305.087 139.436 298.534 143.392 296.879 142.712C295.223 142.032 295.211 139.687 295.211 139.687C295.211 139.687 293.242 138.8 292.698 137.763C292.154 136.725 293.087 135.272 293.087 135.272C293.087 135.272 291.427 133.576 291.017 133.102C290.606 132.628 291.241 130.428 291.241 130.428L293.892 127.857C293.892 127.857 290.243 129.443 289.482 128.838C288.722 128.233 287.864 127.71 288.678 126.607C289.492 125.504 292.387 123.035 292.387 123.035L293.451 119.165Z" fill="#E9EDF1"/>
<path d="M295.58 139.958C295.539 139.911 296.029 139.393 296.776 138.505C297.526 137.639 298.589 136.352 300.147 135.418C301.672 134.485 303.073 133.734 303.936 132.982C304.817 132.253 305.163 131.615 305.228 131.653C305.273 131.666 305.011 132.388 304.144 133.213C303.299 134.056 301.877 134.874 300.382 135.79C298.88 136.688 297.825 137.891 297.005 138.716C296.195 139.554 295.619 140.003 295.58 139.958Z" fill="#73A1BD"/>
<path d="M293.024 135.955C292.938 135.87 294.634 134.038 296.811 131.865C297.904 130.795 298.841 129.756 299.648 129.12C300.441 128.467 301.047 128.231 301.068 128.28C301.1 128.34 300.57 128.662 299.853 129.354C299.123 130.027 298.226 131.095 297.121 132.177C294.944 134.349 293.109 136.041 293.024 135.955Z" fill="#73A1BD"/>
<path d="M293.892 127.857C293.806 127.747 294.853 126.916 296.015 125.808C297.198 124.708 297.775 123.532 297.886 123.575C298.012 123.602 297.563 124.968 296.323 126.122C295.113 127.273 293.953 127.938 293.892 127.857Z" fill="#73A1BD"/>
<path d="M293.452 119.153C293.46 119.157 293.444 119.247 293.405 119.418C293.357 119.615 293.297 119.863 293.223 120.171C293.044 120.864 292.796 121.825 292.48 123.048L292.473 123.075L292.45 123.095C291.917 123.564 291.318 124.103 290.671 124.712C290.042 125.328 289.286 125.99 288.701 126.816C288.573 127.025 288.477 127.258 288.501 127.485C288.524 127.711 288.664 127.923 288.856 128.109C289.045 128.296 289.275 128.464 289.507 128.646C289.696 128.81 289.95 128.808 290.242 128.791C291.394 128.656 292.606 128.184 293.822 127.681L294.676 127.328L294.017 127.973C293.182 128.787 292.295 129.655 291.375 130.553L291.416 130.497C291.081 131.316 290.868 132.354 291.28 133.181C291.739 134.003 292.555 134.697 293.37 135.311L293.55 135.446L293.405 135.617C292.828 136.298 292.419 137.375 293.174 138.04C293.846 138.736 294.766 139.273 295.676 139.752L295.366 139.923L295.371 139.872C295.371 139.872 295.372 139.848 295.372 139.857V139.862C295.427 139.926 295.248 139.709 295.498 140.049C296.093 139.768 295.67 139.933 295.8 139.887V139.89L295.796 139.991L295.797 140.207C295.803 140.352 295.817 140.498 295.838 140.642C295.879 140.93 295.955 141.213 296.067 141.478C296.181 141.741 296.335 141.984 296.536 142.181C296.736 142.373 296.984 142.546 297.221 142.574C297.761 142.634 298.388 142.437 298.966 142.23C299.553 142.014 300.131 141.743 300.7 141.45C301.778 140.892 302.807 140.259 303.785 139.584C304.755 138.904 305.7 138.19 306.484 137.37C306.885 136.964 307.146 136.515 307.184 135.981C307.232 135.459 307.102 134.925 306.9 134.427C306.486 133.429 305.804 132.542 305.084 131.788L305.019 131.719L305.023 131.617C305.049 131.095 305.072 130.559 304.867 130.101C304.687 129.639 304.356 129.258 303.937 129.001C303.091 128.492 302.03 128.397 301.09 128.456L300.824 128.473L300.888 128.211C300.958 127.923 301.04 127.639 301.1 127.355C301.117 127.07 301.199 126.783 301.166 126.506C301.183 125.945 301.003 125.414 300.689 125.005C300.037 124.178 298.895 123.927 297.941 123.929L297.631 123.929L297.797 123.678C298.348 122.84 298.884 122.046 299.284 121.253C299.476 120.855 299.625 120.45 299.662 120.051C299.702 119.653 299.603 119.269 299.425 118.933C299.046 118.282 298.503 117.713 297.973 117.355C297.409 117.011 296.765 117.024 296.246 117.179C295.194 117.511 294.534 118.144 294.099 118.523C293.88 118.722 293.726 118.886 293.619 118.993C293.512 119.103 293.46 119.157 293.452 119.153C293.445 119.15 293.489 119.081 293.583 118.962C293.679 118.843 293.823 118.668 294.033 118.457C294.241 118.242 294.511 117.99 294.861 117.727C295.208 117.463 295.641 117.183 296.195 117.007C296.735 116.829 297.453 116.795 298.085 117.166C298.229 117.272 298.376 117.379 298.527 117.489C298.657 117.614 298.791 117.742 298.927 117.872C299.18 118.151 299.456 118.438 299.652 118.811C299.854 119.175 299.975 119.621 299.936 120.073C299.901 120.526 299.742 120.962 299.547 121.379C299.141 122.209 298.611 123.01 298.067 123.856L297.924 123.606C298.463 123.592 298.997 123.664 299.533 123.835C300.062 124.008 300.592 124.308 300.968 124.786C301.34 125.26 301.547 125.885 301.532 126.497C301.568 126.808 301.486 127.108 301.467 127.418C301.407 127.72 301.323 128.019 301.25 128.325L301.048 128.08C302.071 128.012 303.163 128.09 304.145 128.663C304.626 128.951 305.032 129.408 305.244 129.952C305.484 130.497 305.461 131.091 305.433 131.664L305.373 131.493C306.139 132.292 306.836 133.185 307.292 134.265C307.511 134.803 307.666 135.4 307.611 136.023C307.587 136.336 307.485 136.635 307.354 136.925C307.187 137.194 307.011 137.458 306.799 137.665C305.974 138.531 305.021 139.25 304.035 139.944C303.043 140.631 302 141.272 300.902 141.841C300.321 142.14 299.731 142.417 299.118 142.642C298.503 142.854 297.88 143.079 297.157 143.007C296.39 142.844 295.94 142.252 295.667 141.65C295.537 141.343 295.454 141.024 295.409 140.704C295.385 140.544 295.371 140.384 295.365 140.223L295.363 139.981L295.369 139.854L295.373 139.828L295.373 139.821C295.503 139.774 295.08 139.937 295.677 139.656C295.927 139.994 295.749 139.778 295.804 139.844V139.862L295.801 139.904L295.796 139.967L295.766 140.289L295.485 140.139C294.533 139.632 293.617 139.107 292.861 138.326C292.681 138.123 292.504 137.892 292.412 137.606C292.319 137.324 292.323 137.025 292.375 136.754C292.492 136.206 292.758 135.752 293.096 135.342L293.131 135.648C292.276 134.991 291.458 134.314 290.925 133.362C290.672 132.864 290.625 132.305 290.68 131.797C290.735 131.28 290.868 130.801 291.069 130.336L291.083 130.305L291.109 130.279C292.035 129.387 292.929 128.526 293.769 127.717L293.964 128.008C292.711 128.511 291.514 128.976 290.266 129.112C289.97 129.133 289.579 129.124 289.313 128.89C289.087 128.71 288.852 128.535 288.641 128.321C288.432 128.114 288.24 127.84 288.209 127.513C288.182 127.187 288.315 126.899 288.462 126.666C289.111 125.776 289.86 125.155 290.509 124.537C291.17 123.936 291.779 123.409 292.326 122.95L292.296 122.997C292.652 121.778 292.931 120.821 293.132 120.131C293.225 119.83 293.3 119.588 293.359 119.395C293.413 119.231 293.444 119.15 293.452 119.153Z" fill="#73A1BD"/>
<path d="M378.06 244.924C378.06 245.001 298.333 245.063 200.008 245.063C101.649 245.063 21.9402 245.001 21.9402 244.924C21.9402 244.847 101.649 244.785 200.008 244.785C298.333 244.785 378.06 244.847 378.06 244.924Z" fill="#1A2E35"/>
</g>
<defs>
<clipPath id="clip0_10263_126026">
<rect width="400" height="266.667" fill="white"/>
</clipPath>
</defs>
</svg>
