<svg width="155" height="22" viewBox="0 0 155 22" fill="none" xmlns="http://www.w3.org/2000/svg">
<path d="M24.8988 20.7378C22.9653 20.7378 22.4934 20.3654 22.4934 18.8401V3.11788C22.4934 1.5929 22.9653 1.22048 24.8988 1.22048H34.5708C35.405 1.22048 35.8105 1.60803 35.8105 2.40527C35.8105 3.20279 35.405 3.59034 34.5708 3.59034H25.4683V9.61683H34.0042C34.8387 9.61683 35.2273 9.98897 35.2273 10.7876C35.2273 11.5874 34.8502 11.9441 34.0042 11.9441H25.4683V18.3677H34.5708C35.405 18.3677 35.8105 18.76 35.8105 19.5667C35.8105 20.3657 35.4114 20.7378 34.5548 20.7378H24.8988Z" fill="#224E70"/>
<path d="M34.5707 1.14161H24.8987C22.7898 1.14161 22.4146 1.65947 22.4146 3.11775V18.84C22.4146 20.5177 23.0652 20.8164 24.8987 20.8164H34.5544C35.4525 20.8164 35.8891 20.4076 35.8891 19.5669C35.8891 18.7189 35.4455 18.2891 34.5707 18.2891H25.5466V12.0227H34.004C34.8924 12.0227 35.306 11.6301 35.306 10.7875C35.306 9.93504 34.8924 9.53796 34.004 9.53796H25.5466V3.66895H34.5707C35.4578 3.66895 35.8891 3.25562 35.8891 2.40514C35.8891 1.55494 35.4578 1.14161 34.5707 1.14161ZM34.5707 1.2991C35.4452 1.2991 35.7316 1.72448 35.7316 2.40514C35.7316 3.08609 35.4452 3.51175 34.5707 3.51175H25.3894V9.69545H34.004C34.8783 9.69545 35.1485 10.1068 35.1485 10.7875C35.1485 11.4684 34.8783 11.8655 34.004 11.8655H25.3894V18.4463H34.5707C35.4452 18.4463 35.7316 18.8859 35.7316 19.5669C35.7316 20.2476 35.4452 20.6589 34.5544 20.6589H24.8987C23.0364 20.6589 22.5718 20.3434 22.5718 18.84V3.11775C22.5718 1.61435 23.0364 1.2991 24.8987 1.2991H34.5707Z" fill="#224E70"/>
<path d="M44.3373 20.7378C42.4038 20.7378 41.9319 20.3654 41.9319 18.8401V3.11788C41.9319 1.5929 42.4038 1.22048 44.3373 1.22048H54.0093C54.8435 1.22048 55.249 1.60803 55.249 2.40527C55.249 3.20279 54.8435 3.59034 54.0093 3.59034H44.9067V9.61683H53.4426C54.2771 9.61683 54.6658 9.98897 54.6658 10.7876C54.6658 11.5874 54.2886 11.9441 53.4426 11.9441H44.9067V18.3677H54.0093C54.8435 18.3677 55.249 18.76 55.249 19.5667C55.249 20.3657 54.8499 20.7378 53.9933 20.7378H44.3373Z" fill="#224E70"/>
<path d="M54.0091 1.14161H44.3372C42.2282 1.14161 41.853 1.65947 41.853 3.11775V18.84C41.853 20.5177 42.5037 20.8164 44.3372 20.8164H53.9929C54.891 20.8164 55.3276 20.4076 55.3276 19.5669C55.3276 18.7189 54.884 18.2891 54.0091 18.2891H44.9851V12.0227H53.4425C54.3308 12.0227 54.7444 11.6301 54.7444 10.7875C54.7444 9.93504 54.3308 9.53796 53.4425 9.53796H44.9851V3.66895H54.0091C54.8963 3.66895 55.3276 3.25562 55.3276 2.40514C55.3276 1.55494 54.8963 1.14161 54.0091 1.14161ZM54.0091 1.2991C54.8837 1.2991 55.1701 1.72448 55.1701 2.40514C55.1701 3.08609 54.8837 3.51175 54.0091 3.51175H44.8279V9.69545H53.4425C54.3168 9.69545 54.587 10.1068 54.587 10.7875C54.587 11.4684 54.3168 11.8655 53.4425 11.8655H44.8279V18.4463H54.0091C54.8837 18.4463 55.1701 18.8859 55.1701 19.5669C55.1701 20.2476 54.8837 20.6589 53.9929 20.6589H44.3372C42.4748 20.6589 42.0102 20.3434 42.0102 18.84V3.11775C42.0102 1.61435 42.4748 1.2991 44.3372 1.2991H54.0091Z" fill="#224E70"/>
<path d="M63.7743 20.7378C61.8408 20.7378 61.3689 20.3654 61.3689 18.8401V2.23854C61.3689 1.2104 62.1636 1.07869 62.8563 1.07869C63.5563 1.07869 64.36 1.2104 64.36 2.23854V18.3536H73.1711C74.016 18.3536 74.4268 18.7457 74.4268 19.5527C74.4268 20.3609 74.0277 20.7378 73.1711 20.7378H63.7743Z" fill="#224E70"/>
<path d="M62.8565 1.0001C62.1842 1.0001 61.2903 1.12844 61.2903 2.23869V18.8403C61.2903 20.518 61.9412 20.8164 63.7745 20.8164H73.1712C74.0693 20.8164 74.5056 20.4031 74.5056 19.5529C74.5056 18.6929 74.0693 18.2751 73.1712 18.2751H64.4389V2.23869C64.4389 1.12844 63.5357 1.0001 62.8565 1.0001ZM62.8565 1.15758C63.731 1.15758 64.2814 1.40194 64.2814 2.23869V18.4325H73.1712C74.0618 18.4325 74.3484 18.8719 74.3484 19.5529C74.3484 20.2335 74.0618 20.6592 73.1712 20.6592H63.7745C61.9124 20.6592 61.4478 20.3437 61.4478 18.8403V2.23869C61.4478 1.40194 61.9822 1.15758 62.8565 1.15758Z" fill="#224E70"/>
<path d="M103.562 10.8016C106.59 10.8016 108.226 9.55352 108.226 7.21337C108.226 4.85893 106.542 3.49733 103.675 3.49733H98.8501V10.8016H103.562ZM97.4412 20.8006C96.5506 20.8006 96.0325 20.5562 96.0325 19.7195V3.1888C96.0325 1.62851 96.4971 1.29897 98.4076 1.29897H104.032C108.388 1.29897 111.124 3.53992 111.124 7.08559C111.124 9.59612 109.554 11.6244 107.027 12.4185L110.768 18.6448C110.913 18.9144 111.115 19.3664 111.115 19.6783C111.115 20.3023 110.551 20.8135 109.79 20.8135C109.078 20.8135 108.517 20.4035 108.031 19.5668L104.226 12.9574H98.8501V19.7195C98.8501 20.5562 98.3155 20.8006 97.4412 20.8006Z" fill="#5189AC"/>
<path d="M103.562 10.8016C106.59 10.8016 108.226 9.55352 108.226 7.21337C108.226 4.85893 106.542 3.49733 103.675 3.49733H98.8501V10.8016H103.562ZM97.4412 20.8006C96.5506 20.8006 96.0325 20.5562 96.0325 19.7195V3.1888C96.0325 1.62851 96.4971 1.29897 98.4076 1.29897H104.032C108.388 1.29897 111.124 3.53992 111.124 7.08559C111.124 9.59612 109.554 11.6244 107.027 12.4185L110.768 18.6448C110.913 18.9144 111.115 19.3664 111.115 19.6783C111.115 20.3023 110.551 20.8135 109.79 20.8135C109.078 20.8135 108.517 20.4035 108.031 19.5668L104.226 12.9574H98.8501V19.7195C98.8501 20.5562 98.3155 20.8006 97.4412 20.8006Z" stroke="#5189AC" stroke-miterlimit="10"/>
<path d="M127.761 12.844L124.441 4.22066H124.328L121.008 12.844H127.761ZM115.442 19.8605C115.442 19.5769 115.6 19.2264 115.73 18.8862L122.385 2.40566C122.79 1.41282 123.356 1.14297 124.393 1.14297C125.429 1.14297 125.996 1.24889 126.401 2.24145L133.056 18.8862C133.185 19.1981 133.266 19.5568 133.266 19.8263C133.266 20.493 132.732 20.8433 131.906 20.8433C131.129 20.8433 130.692 20.7121 130.384 19.8754L128.522 14.8439H120.248L118.212 19.8538C117.904 20.7051 117.64 20.8433 116.863 20.8433C116.054 20.8433 115.442 20.5129 115.442 19.8605Z" fill="#5189AC"/>
<path d="M127.761 12.844L124.441 4.22067H124.328L121.008 12.844H127.761ZM115.442 19.8605C115.442 19.5769 115.6 19.2264 115.73 18.8862L122.385 2.40566C122.79 1.41282 123.356 1.14297 124.393 1.14297C125.429 1.14297 125.996 1.24889 126.401 2.24145L133.056 18.8862C133.185 19.1981 133.266 19.5568 133.266 19.8263C133.266 20.493 132.732 20.8433 131.906 20.8433C131.129 20.8433 130.692 20.7121 130.384 19.8754L128.522 14.8439H120.248L118.212 19.8538C117.904 20.7051 117.64 20.8433 116.863 20.8433C116.054 20.8433 115.442 20.5129 115.442 19.8605Z" stroke="#5189AC" stroke-miterlimit="10"/>
<path d="M151.134 20.0307L144.042 11.3124L141.256 13.8369V19.7197C141.256 20.5564 140.706 20.8008 139.832 20.8008C138.957 20.8008 138.423 20.5564 138.423 19.7197V2.23876C138.423 1.40201 138.957 1.15737 139.832 1.15737C140.706 1.15737 141.256 1.40201 141.256 2.23876V10.6317H141.386L150.852 1.76994C151.452 1.18848 151.576 1.19352 152.041 1.25657C152.698 1.34596 153.109 1.72567 153.215 2.34888C153.277 2.71233 153.209 2.84712 152.561 3.44288L146.147 9.6106L153.077 18.0353C153.758 18.858 154.058 19.2674 154.058 19.6362C154.058 20.3594 153.304 20.7016 152.446 20.7016C151.879 20.7016 151.701 20.7257 151.134 20.0307Z" fill="#5189AC"/>
<path d="M151.134 20.0307L144.042 11.3124L141.256 13.8369V19.7197C141.256 20.5564 140.706 20.8008 139.832 20.8008C138.957 20.8008 138.423 20.5564 138.423 19.7197V2.23876C138.423 1.40201 138.957 1.15737 139.832 1.15737C140.706 1.15737 141.256 1.40201 141.256 2.23876V10.6317H141.386L150.852 1.76994C151.452 1.18848 151.576 1.19352 152.041 1.25657C152.698 1.34596 153.109 1.72567 153.215 2.34888C153.277 2.71233 153.209 2.84712 152.561 3.44288L146.147 9.6106L153.077 18.0353C153.758 18.858 154.058 19.2674 154.058 19.6362C154.058 20.3594 153.304 20.7016 152.446 20.7016C151.879 20.7016 151.701 20.7257 151.134 20.0307Z" stroke="#5189AC" stroke-miterlimit="10"/>
<path d="M13.9589 20.7437C13.7566 20.7439 13.6148 20.7064 13.5156 20.5119C13.3422 20.1728 8.27234 11.4862 8.20677 11.3735C8.07563 11.1488 8.19332 10.9254 8.51025 10.9254C8.51025 10.9254 10.1978 10.9333 10.2104 10.9333C11.2598 10.9333 12.2246 10.819 13.0322 10.0744C14.0548 9.13146 14.3978 7.7592 13.9124 6.45252C13.4657 5.25008 12.159 4.38054 10.7722 4.3783C8.7448 4.37494 4.12419 4.36709 2.09705 4.39007C1.7591 4.39371 1.57612 4.20372 1.4262 3.956C0.859303 3.01753 0.644932 2.60532 0.0766378 1.6265C-0.0847711 1.30957 0.00798306 1.09604 0.362466 1.09604L11.0813 1.14115C13.4021 1.18038 15.1776 2.28727 16.3994 4.2295C18.4781 7.5339 17.1577 11.8608 13.6683 13.5556C13.5747 13.6013 13.2982 13.724 13.2982 13.724C13.2982 13.724 17.1521 20.2975 17.1557 20.3037C17.2678 20.4951 17.0901 20.7215 16.913 20.7215" fill="#224E70"/>
<path d="M90.3709 1.12793C90.3701 1.12709 90.3695 1.12625 90.3687 1.1254L76.4746 1.18986C75.9058 1.21312 75.7668 1.45215 75.9638 1.89098L76.9123 3.516L77.2057 3.98649C77.398 4.31771 78.1445 4.49145 78.3726 4.49145C78.5172 4.49145 79.6358 4.48697 79.6358 4.48697L79.6364 5.67344V19.5294C79.6367 19.5409 79.6406 19.5521 79.6473 19.5627V19.7113C79.6473 20.8534 80.5211 21 81.2819 21C81.9836 21 82.9164 20.8661 82.9164 19.7113V19.412C82.9206 19.4016 82.924 19.391 82.924 19.38V4.55002C82.924 4.55002 90.5186 4.48725 90.5192 4.48669C91.6793 4.39982 92.2487 3.97836 92.2487 2.79582C92.2487 1.5634 91.6006 1.13942 90.3709 1.12793Z" fill="#5189AC"/>
</svg>
