<svg width="120" height="120" viewBox="0 0 120 120" fill="none" xmlns="http://www.w3.org/2000/svg">
<path fill-rule="evenodd" clip-rule="evenodd" d="M5.90877 85.4458C6.33708 85.2932 6.7878 85.0903 7.13537 84.7967C7.54817 84.4479 7.71605 83.9986 7.82879 83.5258C7.97352 82.9183 8.03136 82.2711 8.20687 81.6626C8.27185 81.4367 8.39691 81.3512 8.45057 81.3133C8.5862 81.2176 8.7233 81.192 8.85228 81.2016C9.00515 81.2127 9.21512 81.2705 9.35322 81.5268C9.37291 81.5634 9.3985 81.6193 9.41573 81.6959C9.42828 81.752 9.43641 81.9275 9.4497 81.9999C9.48293 82.1781 9.51075 82.3563 9.53684 82.5355C9.62373 83.1319 9.67371 83.6385 9.94817 84.1864C10.3206 84.9303 10.6938 85.3855 11.1999 85.5871C11.6892 85.782 12.2743 85.7453 13.0219 85.5925C13.093 85.5753 13.1634 85.5605 13.2331 85.5484C13.5627 85.4908 13.8778 85.7072 13.9425 86.0356C14.0072 86.3637 13.7978 86.6834 13.4711 86.7556C13.4029 86.7706 13.3357 86.7848 13.2693 86.7979C12.2591 87.048 11.0896 87.9405 10.4099 88.7221C10.2005 88.9631 9.89377 89.6368 9.5809 90.0666C9.35001 90.3836 9.09056 90.5926 8.87272 90.6665C8.72675 90.7162 8.60367 90.7086 8.50201 90.6834C8.35432 90.647 8.23174 90.567 8.13771 90.4397C8.08651 90.3701 8.03899 90.2768 8.01635 90.1576C8.00552 90.1003 8.00429 89.9546 8.00454 89.8886C7.94078 89.6693 7.86275 89.4551 7.80589 89.2338C7.67026 88.7058 7.40416 88.3716 7.0881 87.93C6.79247 87.5167 6.47494 87.257 6.00946 87.0497C5.94891 87.0349 5.46029 86.9153 5.28774 86.8466C5.03568 86.746 4.91555 86.5773 4.87198 86.4865C4.79789 86.3324 4.79026 86.1978 4.80503 86.0855C4.82694 85.9199 4.90128 85.7781 5.03322 85.6636C5.11494 85.5925 5.23703 85.5233 5.40048 85.4896C5.52676 85.4632 5.86176 85.448 5.90877 85.4458ZM8.77524 84.5852C8.79789 84.6357 8.82201 84.6864 8.84761 84.7376C9.39309 85.8271 10.0031 86.4353 10.7445 86.7305L10.7693 86.7401C10.2733 87.1083 9.82434 87.5199 9.4812 87.9145C9.33991 88.0769 9.15284 88.4144 8.95075 88.7605C8.76712 88.1636 8.46681 87.7417 8.08921 87.2137C7.80072 86.8107 7.49844 86.5074 7.127 86.2603C7.41524 86.1124 7.69019 85.9391 7.9297 85.7367C8.32847 85.3997 8.5921 85.0093 8.77524 84.5852Z" fill="#F3F4F6"/>
<circle cx="16.7984" cy="12.7999" r="2.4" fill="#F3F4F6"/>
<circle cx="112.398" cy="62.7999" r="2.4" fill="#F3F4F6"/>
<path d="M56.3988 101.6C81.583 101.6 101.999 81.1841 101.999 55.9999C101.999 30.8157 81.583 10.3999 56.3988 10.3999C31.2146 10.3999 10.7988 30.8157 10.7988 55.9999C10.7988 81.1841 31.2146 101.6 56.3988 101.6Z" fill="url(#paint0_linear_25222_139937)"/>
<path fill-rule="evenodd" clip-rule="evenodd" d="M56.1992 28.3999C61.1698 28.3999 65.1992 24.3705 65.1992 19.3999C65.1992 14.4293 61.1698 10.3999 56.1992 10.3999C51.2287 10.3999 47.1992 14.4293 47.1992 19.3999C47.1992 24.3705 51.2287 28.3999 56.1992 28.3999ZM55.9992 24.3999C58.6502 24.3999 60.7992 22.2509 60.7992 19.5999C60.7992 16.9489 58.6502 14.7999 55.9992 14.7999C53.3483 14.7999 51.1992 16.9489 51.1992 19.5999C51.1992 22.2509 53.3483 24.3999 55.9992 24.3999Z" fill="#5089AC"/>
<path d="M56.0184 91.6398C65.7497 91.6398 73.6384 83.7511 73.6384 74.0199C73.6384 64.2886 65.7497 56.3999 56.0184 56.3999C46.2872 56.3999 38.3984 64.2886 38.3984 74.0199C38.3984 83.7511 46.2872 91.6398 56.0184 91.6398Z" fill="url(#paint1_linear_25222_139937)"/>
<path d="M83.9056 60.9192V47.4011C83.9056 40.0277 80.9765 32.9563 75.7627 27.7425C70.549 22.5287 63.4775 19.5996 56.1041 19.5996C48.7307 19.5996 41.6592 22.5287 36.4454 27.7425C31.2316 32.9563 28.3026 40.0277 28.3026 47.4011V60.9192C28.3029 64.0249 27.4243 67.0672 25.7684 69.6946C24.1125 72.322 21.7469 74.4271 18.945 75.7667C18.301 76.0734 17.7574 76.5567 17.3775 77.1603C16.9975 77.764 16.7969 78.4632 16.7988 79.1764V79.2497C16.7984 79.5073 16.8487 79.7625 16.9469 80.0006C17.0452 80.2388 17.1894 80.4552 17.3714 80.6376C17.5534 80.8199 17.7696 80.9646 18.0076 81.0633C18.2455 81.1619 18.5006 81.2127 18.7582 81.2127H93.4463C93.7039 81.2127 93.959 81.1619 94.197 81.0633C94.4349 80.9646 94.6511 80.8199 94.8331 80.6376C95.0151 80.4552 95.1593 80.2388 95.2576 80.0006C95.3558 79.7625 95.4062 79.5073 95.4057 79.2497V79.1764C95.4059 78.4654 95.2048 77.7689 94.8257 77.1674C94.4465 76.5659 93.9048 76.0841 93.2632 75.7777C90.4596 74.4373 88.0928 72.3305 86.4368 69.7009C84.7808 67.0714 83.9032 64.0267 83.9056 60.9192Z" fill="#E1DCEB"/>
<path fill-rule="evenodd" clip-rule="evenodd" d="M95.5988 81.1998H16.7988V78.7998H95.5988V81.1998Z" fill="#5089AC"/>
<path d="M78.3992 45.1998C84.5848 45.1998 89.5992 40.1854 89.5992 33.9998C89.5992 27.8142 84.5848 22.7998 78.3992 22.7998C72.2136 22.7998 67.1992 27.8142 67.1992 33.9998C67.1992 40.1854 72.2136 45.1998 78.3992 45.1998Z" fill="white"/>
<path d="M75.5996 33.9955C75.5996 33.002 75.8267 32.2211 76.2809 31.6526C76.7414 31.0841 77.4476 30.7998 78.3996 30.7998C79.3454 30.7998 80.0485 31.0869 80.5089 31.6612C80.9694 32.2297 81.1996 33.0078 81.1996 33.9955C81.1996 34.9889 80.9694 35.7728 80.5089 36.347C80.0485 36.9156 79.3454 37.1998 78.3996 37.1998C77.4476 37.1998 76.7414 36.9156 76.2809 36.347C75.8267 35.7728 75.5996 34.9889 75.5996 33.9955ZM79.1556 33.9955C79.1556 33.5361 79.1058 33.1915 79.0063 32.9619C78.9067 32.7264 78.7045 32.6087 78.3996 32.6087C78.0885 32.6087 77.8832 32.7264 77.7836 32.9619C77.6841 33.1915 77.6343 33.5361 77.6343 33.9955C77.6343 34.4606 77.6841 34.8109 77.7836 35.0464C77.8832 35.2761 78.0885 35.3909 78.3996 35.3909C78.7045 35.3909 78.9067 35.2761 79.0063 35.0464C79.1058 34.8109 79.1556 34.4606 79.1556 33.9955Z" fill="#5089AC"/>
<path fill-rule="evenodd" clip-rule="evenodd" d="M34.4406 87.3209C32.5244 89.054 30.6136 90.7517 28.7487 92.5397C28.3461 92.9229 28.331 93.5548 28.7118 93.9529C29.0939 94.3549 29.7293 94.3675 30.1281 93.9855C31.984 92.2089 33.8781 90.525 35.7816 88.8044C36.1917 88.4314 36.2234 87.7983 35.8565 87.3914C35.4846 86.9819 34.8507 86.9479 34.4406 87.3209Z" fill="#5089AC"/>
<path fill-rule="evenodd" clip-rule="evenodd" d="M77.727 87.3215C79.6324 89.055 81.5326 90.7531 83.3865 92.5414C83.7867 92.9246 83.7987 93.5559 83.4162 93.9533C83.0325 94.3545 82.3977 94.3665 82.0013 93.9845C80.1564 92.2076 78.2727 90.5233 76.38 88.8024C75.9722 88.4293 75.9437 87.7967 76.3122 87.3906C76.6858 86.9818 77.3192 86.9485 77.727 87.3215Z" fill="#5089AC"/>
<path fill-rule="evenodd" clip-rule="evenodd" d="M54.8585 98.5184C54.8282 101.097 54.7756 103.647 54.8203 106.224C54.8279 106.779 55.2808 107.217 55.8311 107.207C56.3851 107.198 56.8255 106.741 56.8162 106.19C56.7737 103.626 56.8252 101.098 56.8561 98.5374C56.861 97.9843 56.4185 97.5329 55.8713 97.527C55.3187 97.523 54.8635 97.9652 54.8585 98.5184Z" fill="#5089AC"/>
<defs>
<linearGradient id="paint0_linear_25222_139937" x1="56.0473" y1="-4.44858" x2="56.9814" y2="155.692" gradientUnits="userSpaceOnUse">
<stop stop-color="#F2F2F2"/>
<stop offset="1" stop-color="#EFEFEF"/>
</linearGradient>
<linearGradient id="paint1_linear_25222_139937" x1="38.3984" y1="56.3433" x2="73.8924" y2="84.7402" gradientUnits="userSpaceOnUse">
<stop stop-color="#E1DCEB"/>
<stop offset="1" stop-color="#B3AFBA"/>
</linearGradient>
</defs>
</svg>
