<svg width="200" height="200" viewBox="0 0 200 200" fill="none" xmlns="http://www.w3.org/2000/svg">
<g clip-path="url(#clip0_6303_132134)">
<path d="M100 179.333C144.183 179.333 180 143.516 180 99.333C180 55.1502 144.183 19.333 100 19.333C55.8172 19.333 20 55.1502 20 99.333C20 143.516 55.8172 179.333 100 179.333Z" fill="url(#paint0_linear_6303_132134)"/>
<g filter="url(#filter0_d_6303_132134)">
<rect x="59.334" y="42.3711" width="83.0247" height="103.353" rx="10.6667" fill="white"/>
</g>
<rect x="66.668" y="55.7041" width="33.3333" height="6.53333" rx="3.26667" fill="#5089AC"/>
<rect x="66.668" y="74.2373" width="66.6667" height="6.53333" rx="3.26667" fill="#D5D5D5"/>
<rect x="66.668" y="92.7705" width="66.6667" height="6.53333" rx="3.26667" fill="#D5D5D5"/>
<rect x="66.668" y="111.304" width="66.6667" height="6.53333" rx="3.26667" fill="#D5D5D5"/>
<rect x="66.668" y="129.838" width="66.6667" height="6.53333" rx="3.26667" fill="#D5D5D5"/>
<g filter="url(#filter1_d_6303_132134)">
<path d="M192.099 30.9492H152.046C150.179 30.9492 148.666 32.5416 148.666 34.5058V54.3186C148.666 56.2828 150.179 57.8752 152.046 57.8752H192.099C193.966 57.8752 195.479 56.2828 195.479 54.3186V34.5058C195.479 32.5416 193.966 30.9492 192.099 30.9492Z" fill="white"/>
</g>
<path d="M158.666 48.667C160.875 48.667 162.666 46.8761 162.666 44.667C162.666 42.4579 160.875 40.667 158.666 40.667C156.457 40.667 154.666 42.4579 154.666 44.667C154.666 46.8761 156.457 48.667 158.666 48.667Z" fill="#CCC6D9"/>
<rect x="168" y="40.667" width="21.3333" height="8" rx="4" fill="#D5D5D5"/>
<path fill-rule="evenodd" clip-rule="evenodd" d="M123.407 150.376C131.993 150.376 139.973 147.779 146.604 143.327L173.737 169.228L183.577 157.811L157.395 132.818C162.23 126.013 165.074 117.693 165.074 108.71C165.074 85.6978 146.419 67.043 123.407 67.043C100.395 67.043 81.7402 85.6978 81.7402 108.71C81.7402 131.722 100.395 150.376 123.407 150.376ZM158.946 108.708C158.946 128.191 143.152 143.984 123.67 143.984C104.188 143.984 88.3949 128.191 88.3949 108.708C88.3949 89.2263 104.188 73.4329 123.67 73.4329C143.152 73.4329 158.946 89.2263 158.946 108.708Z" fill="#CCC6D9"/>
<g filter="url(#filter2_b_6303_132134)">
<path d="M123.667 144.667C143.734 144.667 160.001 128.549 160.001 108.667C160.001 88.7847 143.734 72.667 123.667 72.667C103.601 72.667 87.334 88.7847 87.334 108.667C87.334 128.549 103.601 144.667 123.667 144.667Z" fill="white" fill-opacity="0.3"/>
</g>
<path d="M129.948 108.667L138.741 99.9081C139.565 99.0416 140.016 97.89 139.999 96.6981C139.982 95.5061 139.498 94.3677 138.65 93.5247C137.802 92.6818 136.656 92.2008 135.457 92.1839C134.258 92.167 133.099 92.6156 132.227 93.4343L123.415 102.193L114.623 93.4343C114.199 92.9893 113.691 92.6331 113.127 92.3868C112.563 92.1405 111.955 92.0091 111.339 92.0005C110.723 91.9918 110.111 92.106 109.541 92.3363C108.97 92.5666 108.451 92.9083 108.016 93.3413C107.58 93.7743 107.236 94.2896 107.004 94.857C106.773 95.4243 106.658 96.0321 106.666 96.6443C106.675 97.2566 106.807 97.8609 107.055 98.4214C107.303 98.982 107.661 99.4875 108.109 99.9081L116.916 108.667L108.109 117.425C107.661 117.846 107.303 118.351 107.055 118.912C106.807 119.472 106.675 120.077 106.666 120.689C106.658 121.301 106.773 121.909 107.004 122.476C107.236 123.044 107.58 123.559 108.016 123.992C108.451 124.425 108.97 124.767 109.541 124.997C110.111 125.227 110.723 125.342 111.339 125.333C111.955 125.324 112.563 125.193 113.127 124.947C113.691 124.7 114.199 124.344 114.623 123.899L123.435 115.14L132.247 123.899C133.127 124.669 134.27 125.077 135.442 125.04C136.614 125.002 137.727 124.521 138.555 123.696C139.383 122.87 139.864 121.762 139.898 120.597C139.932 119.432 139.519 118.298 138.741 117.425L129.948 108.667Z" fill="#5089AC"/>
<path d="M173.734 169.228L183.575 157.811L185.057 159.226C186.495 160.598 187.356 162.516 187.45 164.557C187.545 166.598 186.865 168.594 185.561 170.108C184.256 171.621 182.434 172.527 180.495 172.627C178.556 172.726 176.658 172.011 175.22 170.638L173.738 169.223L173.734 169.228Z" fill="#E1DCEB"/>
<path fill-rule="evenodd" clip-rule="evenodd" d="M37.5423 60.7816C37.5298 59.8309 37.4105 58.872 37.172 57.9066C36.3355 54.5185 32.6036 52.3434 28.6316 51.832C24.6612 51.3206 20.5322 52.4844 18.9409 55.4315C18.0307 57.1165 17.9051 58.5688 18.2771 59.7932C18.6474 61.0111 19.5262 62.0208 20.7189 62.8075C24.0443 64.999 29.8683 65.4465 32.5252 64.5302C33.754 64.1057 34.9545 63.5943 36.1236 63.0092C35.4551 66.8398 32.9645 70.4688 29.6406 73.7388C22.4169 80.846 11.2071 86.2403 5.10239 88.2237C4.7744 88.3302 4.59234 88.6941 4.69435 89.0367C4.79635 89.3792 5.14474 89.571 5.47273 89.4645C11.6983 87.4418 23.1263 81.9328 30.4928 74.6846C34.2985 70.9409 37.0103 66.7267 37.4733 62.2961C46.0764 57.4952 53.1416 48.7849 59.182 41.4548C59.4064 41.1844 59.3766 40.7729 59.1161 40.5385C58.8556 40.3058 58.4632 40.3353 58.2388 40.6074C52.4448 47.6375 45.7202 56.0003 37.5423 60.7816ZM36.2916 61.4782C36.3387 60.4095 36.2382 59.3244 35.9667 58.2295C35.2432 55.2971 31.9178 53.5629 28.4793 53.1204C26.3717 52.8499 24.2045 53.0729 22.5049 53.8662C21.4361 54.3645 20.5557 55.0873 20.0253 56.0708C19.3285 57.3608 19.1778 58.4639 19.4634 59.3998C19.749 60.3423 20.4585 61.0996 21.3828 61.7077C24.4132 63.7058 29.716 64.1303 32.1344 63.296C33.5609 62.8043 34.9451 62.1912 36.2916 61.4782Z" fill="#5089AC"/>
<circle cx="190" cy="122.667" r="4" fill="#417BA4"/>
<path fill-rule="evenodd" clip-rule="evenodd" d="M38.9222 150.263C39.636 149.995 40.3872 149.64 40.9665 149.124C41.6545 148.513 41.9343 147.725 42.1222 146.895C42.3634 145.83 42.4598 144.695 42.7523 143.627C42.8606 143.231 43.0691 143.081 43.1585 143.015C43.3846 142.847 43.6131 142.802 43.828 142.819C44.0828 142.838 44.4328 142.94 44.6629 143.389C44.6957 143.453 44.7384 143.551 44.7671 143.686C44.788 143.784 44.8016 144.092 44.8237 144.219C44.8791 144.531 44.9255 144.844 44.969 145.158C45.1138 146.205 45.1971 147.093 45.6545 148.054C46.2752 149.359 46.8972 150.157 47.7407 150.511C48.5563 150.853 49.5314 150.788 50.7774 150.52C50.8959 150.49 51.0133 150.464 51.1294 150.443C51.6787 150.342 52.2038 150.722 52.3117 151.298C52.4196 151.873 52.0705 152.434 51.5261 152.56C51.4125 152.587 51.3004 152.612 51.1897 152.635C49.506 153.073 47.5568 154.639 46.4241 156.01C46.075 156.432 45.5638 157.614 45.0424 158.368C44.6576 158.924 44.2252 159.291 43.8621 159.42C43.6188 159.507 43.4137 159.494 43.2442 159.45C42.9981 159.386 42.7938 159.246 42.6371 159.022C42.5517 158.9 42.4725 158.737 42.4348 158.528C42.4167 158.427 42.4147 158.171 42.4151 158.056C42.3089 157.671 42.1788 157.295 42.084 156.907C41.858 155.981 41.4145 155.395 40.8877 154.62C40.395 153.895 39.8658 153.44 39.09 153.076C38.9891 153.05 38.1747 152.841 37.8871 152.72C37.467 152.544 37.2668 152.248 37.1942 152.088C37.0707 151.818 37.058 151.582 37.0826 151.385C37.1191 151.095 37.243 150.846 37.4629 150.645C37.5991 150.52 37.8026 150.399 38.075 150.34C38.2855 150.294 38.8438 150.267 38.9222 150.263ZM43.6996 148.754C43.7374 148.842 43.7776 148.931 43.8202 149.021C44.7294 150.932 45.746 151.999 46.9817 152.516L47.0231 152.533C46.1964 153.179 45.4481 153.901 44.8762 154.593C44.6407 154.878 44.329 155.47 43.9921 156.077C43.6861 155.03 43.1856 154.29 42.5562 153.364C42.0754 152.657 41.5716 152.125 40.9525 151.692C41.433 151.432 41.8912 151.128 42.2904 150.773C42.955 150.182 43.3944 149.498 43.6996 148.754Z" fill="#417BA4"/>
</g>
<defs>
<filter id="filter0_d_6303_132134" x="29.334" y="32.3711" width="143.025" height="163.353" filterUnits="userSpaceOnUse" color-interpolation-filters="sRGB">
<feFlood flood-opacity="0" result="BackgroundImageFix"/>
<feColorMatrix in="SourceAlpha" type="matrix" values="0 0 0 0 0 0 0 0 0 0 0 0 0 0 0 0 0 0 127 0" result="hardAlpha"/>
<feOffset dy="20"/>
<feGaussianBlur stdDeviation="15"/>
<feComposite in2="hardAlpha" operator="out"/>
<feColorMatrix type="matrix" values="0 0 0 0 0.570833 0 0 0 0 0.570833 0 0 0 0 0.570833 0 0 0 0.19 0"/>
<feBlend mode="normal" in2="BackgroundImageFix" result="effect1_dropShadow_6303_132134"/>
<feBlend mode="normal" in="SourceGraphic" in2="effect1_dropShadow_6303_132134" result="shape"/>
</filter>
<filter id="filter1_d_6303_132134" x="143.999" y="24.9492" width="64.1458" height="44.2591" filterUnits="userSpaceOnUse" color-interpolation-filters="sRGB">
<feFlood flood-opacity="0" result="BackgroundImageFix"/>
<feColorMatrix in="SourceAlpha" type="matrix" values="0 0 0 0 0 0 0 0 0 0 0 0 0 0 0 0 0 0 127 0" result="hardAlpha"/>
<feOffset dx="4" dy="2.66667"/>
<feGaussianBlur stdDeviation="4.33333"/>
<feComposite in2="hardAlpha" operator="out"/>
<feColorMatrix type="matrix" values="0 0 0 0 0.104618 0 0 0 0 0.465612 0 0 0 0 0.545833 0 0 0 0.09 0"/>
<feBlend mode="normal" in2="BackgroundImageFix" result="effect1_dropShadow_6303_132134"/>
<feBlend mode="normal" in="SourceGraphic" in2="effect1_dropShadow_6303_132134" result="shape"/>
</filter>
<filter id="filter2_b_6303_132134" x="79.334" y="64.667" width="88.666" height="88" filterUnits="userSpaceOnUse" color-interpolation-filters="sRGB">
<feFlood flood-opacity="0" result="BackgroundImageFix"/>
<feGaussianBlur in="BackgroundImageFix" stdDeviation="4"/>
<feComposite in2="SourceAlpha" operator="in" result="effect1_backgroundBlur_6303_132134"/>
<feBlend mode="normal" in="SourceGraphic" in2="effect1_backgroundBlur_6303_132134" result="shape"/>
</filter>
<linearGradient id="paint0_linear_6303_132134" x1="99.3833" y1="-6.71696" x2="101.022" y2="274.231" gradientUnits="userSpaceOnUse">
<stop stop-color="#F2F2F2"/>
<stop offset="1" stop-color="#EFEFEF"/>
</linearGradient>
<clipPath id="clip0_6303_132134">
<rect width="200" height="200" fill="white"/>
</clipPath>
</defs>
</svg>
