<svg width="300" height="300" viewBox="0 0 300 300" fill="none" xmlns="http://www.w3.org/2000/svg">
<path d="M149.5 271C216.879 271 271.5 216.603 271.5 149.5C271.5 82.3974 216.879 28 149.5 28C82.1213 28 27.5 82.3974 27.5 149.5C27.5 216.603 82.1213 271 149.5 271Z" fill="url(#paint0_linear_2512_16424)"/>
<path fill-rule="evenodd" clip-rule="evenodd" d="M247.005 95.2006C251.132 92.1729 252.023 86.3729 248.996 82.2459C245.968 78.1188 240.168 77.2277 236.041 80.2554C231.914 83.2832 231.023 89.0832 234.05 93.2102C235.918 95.7556 238.84 97.0701 241.773 96.9934C241.983 96.9702 242.2 96.9569 242.421 96.9538C244.026 96.7991 245.611 96.2235 247.005 95.2006ZM204.674 97.7026C213.824 99.7401 222.144 101.012 230.505 99.8765C229.705 99.1496 228.966 98.3324 228.302 97.4273C222.945 90.1257 224.522 79.864 231.824 74.5073C239.126 69.1505 249.387 70.7272 254.744 78.0288C257.53 81.8271 258.441 86.4264 257.645 90.7196C264.257 86.9802 270.143 82.2559 274.715 76.2151C275.904 74.6453 278.13 74.3876 279.689 75.6394C281.248 76.8913 281.548 79.1787 280.36 80.7485C272.104 91.6558 260.571 98.0456 248.688 102.48C247.002 103.301 245.22 103.81 243.42 104.018C229.961 108.898 216.075 107.721 203.102 104.832C201.197 104.408 200.005 102.468 200.439 100.499C200.873 98.5307 202.769 97.2785 204.674 97.7026Z" fill="#5089AC"/>
<path d="M221 97.5C221 74.0279 201.972 55 178.5 55H138V140H178.5C201.972 140 221 120.972 221 97.5Z" fill="url(#paint1_linear_2512_16424)"/>
<path d="M173.409 124.555C167.387 136.23 157.307 143.875 145.896 143.875H134.872C116.42 143.875 101.456 123.882 101.456 99.2273C101.456 74.5725 116.42 54.5865 134.872 54.5796H145.93C157.342 54.5796 167.436 62.2105 173.443 73.8996C177.316 81.7787 179.329 90.441 179.329 99.2203C179.329 108 177.316 116.662 173.443 124.541L173.409 124.555Z" fill="#5089AC"/>
<path d="M162.26 124.556C156.253 136.21 146.194 143.848 134.803 143.876C116.364 143.876 101.421 123.869 101.421 99.2283C101.421 74.5874 116.364 54.6083 134.803 54.5805C146.194 54.5805 156.253 62.2114 162.26 73.9006C166.138 81.7784 168.154 90.4412 168.154 99.2213C168.154 108.001 166.138 116.664 162.26 124.542V124.556Z" fill="#E1DCEB"/>
<path d="M135.802 107.459C134.176 104.54 131.452 102.626 128.368 102.619C123.375 102.619 119.33 107.631 119.33 113.804C119.33 119.977 123.375 124.983 128.368 124.99C131.452 124.99 134.176 123.078 135.802 120.15C136.852 118.176 137.398 116.006 137.398 113.806C137.398 111.607 136.852 109.436 135.802 107.463V107.459Z" fill="white"/>
<path d="M135.802 77.345C134.176 74.4253 131.452 72.5118 128.368 72.5049C123.375 72.5049 119.33 77.517 119.33 83.6901C119.33 89.8632 123.375 94.8684 128.368 94.8754C131.452 94.8754 134.176 92.9637 135.802 90.0353C136.852 88.0617 137.398 85.8915 137.398 83.6919C137.398 81.4923 136.852 79.322 135.802 77.3485V77.345Z" fill="white"/>
<path d="M98 114.475C98 118.631 101.369 122 105.525 122H127C131.418 122 135 118.418 135 114C135 109.582 131.418 106 127 106H105.525C101.369 106 98 109.369 98 113.525V114.475Z" fill="#5089AC"/>
<path d="M98 83.5C98 87.6421 101.358 91 105.5 91H127.5C131.642 91 135 87.6421 135 83.5C135 79.3579 131.642 76 127.5 76H105.5C101.358 76 98 79.3579 98 83.5Z" fill="#5089AC"/>
<path fill-rule="evenodd" clip-rule="evenodd" d="M158.852 137.179H179.338V140.179H158.852V137.179Z" fill="#5089AC"/>
<path fill-rule="evenodd" clip-rule="evenodd" d="M27.3569 201.844C44.6521 191.459 64.2449 189.482 83.0038 190.103C85.6842 190.192 87.7852 192.437 87.6964 195.117C87.6075 197.798 85.3626 199.899 82.6822 199.81C64.6788 199.213 47.3041 201.195 32.3567 210.171C30.0574 211.551 27.0743 210.807 25.6936 208.507C24.313 206.208 25.0576 203.225 27.3569 201.844Z" fill="#5089AC"/>
<path d="M69 195C69 171.804 87.804 153 111 153H152V237H111C87.804 237 69 218.196 69 195Z" fill="url(#paint2_linear_2512_16424)"/>
<path d="M109.961 222.686C115.99 234.361 126.069 242.006 137.481 242.006H148.539C166.992 242.006 181.955 222.013 181.955 197.358C181.955 172.703 166.992 152.717 148.539 152.71H137.481C126.069 152.71 115.976 160.341 109.961 172.03C106.02 179.887 104.001 188.568 104.072 197.358C104.001 206.148 106.02 214.829 109.961 222.686Z" fill="#5089AC"/>
<path d="M121.109 222.686C127.123 234.34 137.175 241.978 148.573 242.006C167.012 242.006 181.955 221.999 181.955 197.358C181.955 172.717 167.012 152.738 148.573 152.717C137.175 152.717 127.123 160.348 121.109 172.03C117.167 179.887 115.149 188.568 115.219 197.358C115.149 206.148 117.167 214.829 121.109 222.686Z" fill="#E1DCEB"/>
<path d="M151.595 203.287C156.109 203.287 159.769 208.102 159.769 214.042C159.769 219.982 156.109 224.797 151.595 224.797C147.08 224.797 143.421 219.982 143.421 214.042C143.421 208.102 147.08 203.287 151.595 203.287Z" fill="white"/>
<path d="M151.595 168.871C156.109 168.871 159.769 173.686 159.769 179.626C159.769 185.566 156.109 190.381 151.595 190.381C147.08 190.381 143.421 185.566 143.421 179.626C143.421 173.686 147.08 168.871 151.595 168.871Z" fill="white"/>
<path fill-rule="evenodd" clip-rule="evenodd" d="M107.099 234.216H124.35V237.216H107.099V234.216Z" fill="#5089AC"/>
<path fill-rule="evenodd" clip-rule="evenodd" d="M238.072 40.5032C239.378 35.2089 239.293 30.1104 239.449 24.7402C239.48 23.6915 238.654 22.8195 237.605 22.788C236.555 22.7564 235.68 23.584 235.649 24.6328C235.5 29.725 235.62 34.5707 234.381 39.5997C234.13 40.6169 234.754 41.6467 235.773 41.8931C236.791 42.1458 237.822 41.5204 238.072 40.5032Z" fill="#5089AC"/>
<path fill-rule="evenodd" clip-rule="evenodd" d="M249.168 50.7634C258.028 42.6892 266.375 32.3027 272.21 21.815C272.719 20.899 272.387 19.7427 271.47 19.2373C270.552 18.7319 269.394 19.0604 268.885 19.9765C263.243 30.1167 255.17 40.1621 246.603 47.9646C245.829 48.6722 245.775 49.8726 246.482 50.6434C247.19 51.4142 248.394 51.471 249.168 50.7634Z" fill="#5089AC"/>
<path fill-rule="evenodd" clip-rule="evenodd" d="M251.412 59.5824C259.515 60.9155 267.867 58.6411 275.235 55.4253C276.197 55.002 276.635 53.8838 276.215 52.9298C275.794 51.9695 274.672 51.5335 273.711 51.9505C267 54.882 259.411 57.0553 252.031 55.8423C250.996 55.6717 250.017 56.373 249.846 57.4028C249.675 58.4326 250.377 59.4118 251.412 59.5824Z" fill="#5089AC"/>
<path fill-rule="evenodd" clip-rule="evenodd" d="M28.1486 252.553C29.3031 252.141 30.518 251.594 31.4548 250.803C32.5675 249.863 33.02 248.652 33.3239 247.377C33.714 245.74 33.8699 243.995 34.343 242.355C34.5182 241.746 34.8553 241.516 34.9999 241.414C35.3655 241.156 35.735 241.087 36.0827 241.112C36.4948 241.142 37.0607 241.298 37.433 241.989C37.486 242.088 37.555 242.238 37.6015 242.445C37.6353 242.596 37.6572 243.069 37.693 243.264C37.7826 243.745 37.8576 244.225 37.9279 244.708C38.1621 246.316 38.2968 247.681 39.0366 249.158C40.0405 251.163 41.0464 252.39 42.4106 252.933C43.7296 253.459 45.3067 253.36 47.3218 252.948C47.5135 252.902 47.7033 252.862 47.891 252.829C48.7795 252.674 49.6288 253.257 49.8033 254.142C49.9778 255.027 49.4131 255.889 48.5327 256.083C48.3489 256.124 48.1677 256.162 47.9886 256.197C45.2656 256.871 42.1133 259.277 40.2814 261.384C39.7167 262.033 38.89 263.849 38.0467 265.008C37.4243 265.862 36.725 266.426 36.1378 266.625C35.7443 266.759 35.4126 266.738 35.1386 266.671C34.7405 266.572 34.4101 266.357 34.1566 266.014C34.0186 265.826 33.8905 265.574 33.8295 265.253C33.8003 265.099 33.797 264.706 33.7976 264.528C33.6258 263.937 33.4155 263.36 33.2622 262.763C32.8966 261.34 32.1793 260.439 31.3274 259.249C30.5305 258.135 29.6747 257.435 28.42 256.876C28.2568 256.836 26.9397 256.514 26.4746 256.329C25.7952 256.057 25.4714 255.603 25.3539 255.358C25.1542 254.942 25.1337 254.58 25.1735 254.277C25.2325 253.83 25.4329 253.448 25.7885 253.14C26.0088 252.948 26.3379 252.762 26.7785 252.671C27.1189 252.6 28.0218 252.559 28.1486 252.553ZM35.8751 250.233C35.9361 250.369 36.0011 250.506 36.0701 250.644C37.5404 253.58 39.1846 255.22 41.1831 256.015L41.2501 256.041C39.9131 257.034 38.7029 258.143 37.778 259.207C37.3971 259.645 36.8929 260.554 36.3481 261.487C35.8532 259.878 35.0437 258.741 34.0259 257.318C33.2483 256.232 32.4335 255.414 31.4323 254.748C32.2092 254.349 32.9503 253.882 33.5959 253.337C34.6708 252.429 35.3814 251.376 35.8751 250.233Z" fill="#E3E3E3"/>
<defs>
<linearGradient id="paint0_linear_2512_16424" x1="148.56" y1="-11.5634" x2="151.038" y2="415.126" gradientUnits="userSpaceOnUse">
<stop stop-color="#F2F2F2"/>
<stop offset="1" stop-color="#EFEFEF"/>
</linearGradient>
<linearGradient id="paint1_linear_2512_16424" x1="221" y1="54.8636" x2="135.856" y2="121.38" gradientUnits="userSpaceOnUse">
<stop stop-color="#E1DCEB"/>
<stop offset="1" stop-color="#B3AFBA"/>
</linearGradient>
<linearGradient id="paint2_linear_2512_16424" x1="69" y1="152.865" x2="153.378" y2="219.568" gradientUnits="userSpaceOnUse">
<stop stop-color="#E1DCEB"/>
<stop offset="1" stop-color="#B3AFBA"/>
</linearGradient>
</defs>
</svg>
